<svg width="44" height="45" viewBox="0 0 44 45" fill="none" xmlns="http://www.w3.org/2000/svg">
<path d="M13.7312 24.3836C13.5318 25.6524 14.4233 26.533 15.5148 26.9718C19.6996 28.6545 25.523 28.6545 29.7077 26.9718C30.7993 26.533 31.6908 25.6524 31.4914 24.3836C31.3689 23.6039 30.7629 22.9546 30.314 22.3207C29.7259 21.48 29.6675 20.5631 29.6674 19.5876C29.6674 15.8178 26.5083 12.7617 22.6113 12.7617C18.7143 12.7617 15.5552 15.8178 15.5552 19.5876C15.5551 20.5631 15.4967 21.48 14.9086 22.3207C14.4597 22.9546 13.8537 23.6039 13.7312 24.3836Z" stroke="#F1EFEC" stroke-width="2" stroke-linecap="round" stroke-linejoin="round"/>
<path d="M19.7969 30.5781C20.5434 31.1613 21.5293 31.5158 22.61 31.5158C23.6907 31.5158 24.6766 31.1613 25.4231 30.5781" stroke="#F1EFEC" stroke-width="2" stroke-linecap="round" stroke-linejoin="round"/>
<circle cx="22" cy="22.5" r="21" stroke="#F1EFEC" stroke-width="2"/>
</svg>
