<svg width="40" height="40" viewBox="0 0 40 40" fill="none" xmlns="http://www.w3.org/2000/svg">
<rect y="40" width="40" height="40" rx="19.5751" transform="rotate(-90 0 40)" fill="#123459"/>
<path fill-rule="evenodd" clip-rule="evenodd" d="M13.3647 10.9651C13.4391 10.8907 13.4981 10.8024 13.5383 10.7052C13.5786 10.608 13.5993 10.5039 13.5993 10.3987C13.5993 10.2935 13.5786 10.1893 13.5383 10.0921C13.4981 9.99495 13.4391 9.90665 13.3647 9.83227C13.2903 9.75789 13.202 9.69888 13.1048 9.65863C13.0077 9.61837 12.9035 9.59766 12.7983 9.59766C12.6931 9.59766 12.589 9.61837 12.4918 9.65863C12.3946 9.69888 12.3063 9.75789 12.2319 9.83227L9.03191 13.0323C8.9574 13.1066 8.8983 13.1949 8.85796 13.2921C8.81763 13.3892 8.79688 13.4934 8.79688 13.5987C8.79688 13.7039 8.81763 13.8081 8.85796 13.9053C8.8983 14.0025 8.9574 14.0908 9.03191 14.1651L12.2319 17.3651C12.3063 17.4394 12.3946 17.4985 12.4918 17.5387C12.589 17.579 12.6931 17.5997 12.7983 17.5997C12.9035 17.5997 13.0077 17.579 13.1048 17.5387C13.202 17.4985 13.2903 17.4394 13.3647 17.3651C13.4391 17.2907 13.4981 17.2024 13.5383 17.1052C13.5786 17.008 13.5993 16.9039 13.5993 16.7987C13.5993 16.6935 13.5786 16.5893 13.5383 16.4921C13.4981 16.395 13.4391 16.3066 13.3647 16.2323L11.5295 14.3987H23.1983C24.6835 14.3987 26.1079 14.9887 27.1581 16.0389C28.2083 17.0891 28.7983 18.5135 28.7983 19.9987C28.7983 20.2108 28.8826 20.4143 29.0326 20.5644C29.1826 20.7144 29.3861 20.7987 29.5983 20.7987C29.8105 20.7987 30.014 20.7144 30.164 20.5644C30.314 20.4143 30.3983 20.2108 30.3983 19.9987C30.3983 18.0891 29.6397 16.2578 28.2895 14.9075C26.9392 13.5572 25.1079 12.7987 23.1983 12.7987H11.5295L13.3647 10.9651ZM11.1983 19.9987C11.1983 19.7865 11.114 19.583 10.964 19.433C10.814 19.283 10.6105 19.1987 10.3983 19.1987C10.1861 19.1987 9.98265 19.283 9.83262 19.433C9.68259 19.583 9.59831 19.7865 9.59831 19.9987C9.59831 21.9082 10.3569 23.7396 11.7071 25.0898C13.0574 26.4401 14.8887 27.1987 16.7983 27.1987H28.4671L26.6319 29.0323C26.4817 29.1825 26.3973 29.3862 26.3973 29.5987C26.3973 29.8111 26.4817 30.0148 26.6319 30.1651C26.7821 30.3153 26.9859 30.3997 27.1983 30.3997C27.4107 30.3997 27.6145 30.3153 27.7647 30.1651L30.9647 26.9651C31.0392 26.8908 31.0983 26.8025 31.1386 26.7053C31.179 26.6081 31.1997 26.5039 31.1997 26.3987C31.1997 26.2934 31.179 26.1892 31.1386 26.0921C31.0983 25.9949 31.0392 25.9066 30.9647 25.8323L27.7647 22.6323C27.6145 22.482 27.4107 22.3977 27.1983 22.3977C26.9859 22.3977 26.7821 22.482 26.6319 22.6323C26.4817 22.7825 26.3973 22.9862 26.3973 23.1987C26.3973 23.4111 26.4817 23.6148 26.6319 23.7651L28.4671 25.5987H16.7983C15.3131 25.5987 13.8887 25.0087 12.8385 23.9585C11.7883 22.9083 11.1983 21.4839 11.1983 19.9987Z" fill="#DCEDFF"/>
</svg>
