<svg width="42" height="42" viewBox="0 0 42 42" fill="none" xmlns="http://www.w3.org/2000/svg">
<rect width="42" height="42" rx="6" fill="#123459"/>
<path fill-rule="evenodd" clip-rule="evenodd" d="M14.3647 11.9651C14.4391 11.8907 14.4981 11.8024 14.5383 11.7052C14.5786 11.608 14.5993 11.5039 14.5993 11.3987C14.5993 11.2935 14.5786 11.1893 14.5383 11.0921C14.4981 10.995 14.4391 10.9066 14.3647 10.8323C14.2903 10.7579 14.202 10.6989 14.1048 10.6586C14.0077 10.6184 13.9035 10.5977 13.7983 10.5977C13.6931 10.5977 13.589 10.6184 13.4918 10.6586C13.3946 10.6989 13.3063 10.7579 13.2319 10.8323L10.0319 14.0323C9.9574 14.1066 9.8983 14.1949 9.85796 14.2921C9.81763 14.3892 9.79688 14.4934 9.79688 14.5987C9.79688 14.7039 9.81763 14.8081 9.85796 14.9053C9.8983 15.0025 9.9574 15.0908 10.0319 15.1651L13.2319 18.3651C13.3063 18.4394 13.3946 18.4985 13.4918 18.5387C13.589 18.579 13.6931 18.5997 13.7983 18.5997C13.9035 18.5997 14.0077 18.579 14.1048 18.5387C14.202 18.4985 14.2903 18.4394 14.3647 18.3651C14.4391 18.2907 14.4981 18.2024 14.5383 18.1052C14.5786 18.008 14.5993 17.9039 14.5993 17.7987C14.5993 17.6935 14.5786 17.5893 14.5383 17.4921C14.4981 17.395 14.4391 17.3066 14.3647 17.2323L12.5295 15.3987H24.1983C25.6835 15.3987 27.1079 15.9887 28.1581 17.0389C29.2083 18.0891 29.7983 19.5135 29.7983 20.9987C29.7983 21.2108 29.8826 21.4143 30.0326 21.5644C30.1826 21.7144 30.3861 21.7987 30.5983 21.7987C30.8105 21.7987 31.014 21.7144 31.164 21.5644C31.314 21.4143 31.3983 21.2108 31.3983 20.9987C31.3983 19.0891 30.6397 17.2578 29.2895 15.9075C27.9392 14.5572 26.1079 13.7987 24.1983 13.7987H12.5295L14.3647 11.9651ZM12.1983 20.9987C12.1983 20.7865 12.114 20.583 11.964 20.433C11.814 20.283 11.6105 20.1987 11.3983 20.1987C11.1861 20.1987 10.9826 20.283 10.8326 20.433C10.6826 20.583 10.5983 20.7865 10.5983 20.9987C10.5983 22.9082 11.3569 24.7396 12.7071 26.0898C14.0574 27.4401 15.8887 28.1987 17.7983 28.1987H29.4671L27.6319 30.0323C27.4817 30.1825 27.3973 30.3862 27.3973 30.5987C27.3973 30.8111 27.4817 31.0148 27.6319 31.1651C27.7821 31.3153 27.9859 31.3997 28.1983 31.3997C28.4107 31.3997 28.6145 31.3153 28.7647 31.1651L31.9647 27.9651C32.0392 27.8908 32.0983 27.8025 32.1386 27.7053C32.179 27.6081 32.1997 27.5039 32.1997 27.3987C32.1997 27.2934 32.179 27.1892 32.1386 27.0921C32.0983 26.9949 32.0392 26.9066 31.9647 26.8323L28.7647 23.6323C28.6145 23.482 28.4107 23.3977 28.1983 23.3977C27.9859 23.3977 27.7821 23.482 27.6319 23.6323C27.4817 23.7825 27.3973 23.9862 27.3973 24.1987C27.3973 24.4111 27.4817 24.6148 27.6319 24.7651L29.4671 26.5987H17.7983C16.3131 26.5987 14.8887 26.0087 13.8385 24.9585C12.7883 23.9083 12.1983 22.4839 12.1983 20.9987Z" fill="#DCEDFF"/>
</svg>
