<svg width="42" height="42" viewBox="0 0 42 42" fill="none" xmlns="http://www.w3.org/2000/svg">
<rect width="42" height="42" rx="6" fill="#123459"/>
<path d="M13.0002 12.0006C12.735 12.0006 12.4806 12.1059 12.2931 12.2935C12.1056 12.481 12.0002 12.7354 12.0002 13.0006C12.0002 13.2658 12.1056 13.5201 12.2931 13.7077C12.4806 13.8952 12.735 14.0006 13.0002 14.0006C13.2654 14.0006 13.5198 13.8952 13.7073 13.7077C13.8949 13.5201 14.0002 13.2658 14.0002 13.0006C14.0002 12.7354 13.8949 12.481 13.7073 12.2935C13.5198 12.1059 13.2654 12.0006 13.0002 12.0006ZM10.0002 13.0006C9.99915 12.2921 10.2489 11.6061 10.7051 11.0641C11.1614 10.5221 11.7948 10.1591 12.493 10.0393C13.1913 9.91951 13.9095 10.0507 14.5203 10.4097C15.1311 10.7687 15.5951 11.3322 15.8302 12.0006H26.1702C26.3393 11.5227 26.6266 11.0954 27.0054 10.7586C27.3843 10.4218 27.8422 10.1864 28.3366 10.0745C28.831 9.96252 29.3457 9.97761 29.8326 10.1184C30.3196 10.2591 30.763 10.5209 31.1214 10.8793C31.4799 11.2378 31.7417 11.6812 31.8824 12.1681C32.0232 12.6551 32.0383 13.1698 31.9263 13.6642C31.8144 14.1586 31.579 14.6165 31.2422 14.9954C30.9054 15.3742 30.4781 15.6615 30.0002 15.8306V26.1706C30.4781 26.3396 30.9054 26.627 31.2422 27.0058C31.579 27.3846 31.8144 27.8426 31.9263 28.337C32.0383 28.8314 32.0232 29.346 31.8824 29.833C31.7417 30.32 31.4799 30.7634 31.1214 31.1218C30.763 31.4802 30.3196 31.742 29.8326 31.8828C29.3457 32.0235 28.831 32.0386 28.3366 31.9267C27.8422 31.8147 27.3843 31.5793 27.0054 31.2425C26.6266 30.9057 26.3393 30.4785 26.1702 30.0006H15.8302C15.6612 30.4785 15.3738 30.9057 14.995 31.2425C14.6162 31.5793 14.1582 31.8147 13.6638 31.9267C13.1694 32.0386 12.6547 32.0235 12.1678 31.8828C11.6808 31.742 11.2374 31.4802 10.879 31.1218C10.5205 30.7634 10.2587 30.32 10.118 29.833C9.97725 29.346 9.96215 28.8314 10.0741 28.337C10.1861 27.8426 10.4214 27.3846 10.7582 27.0058C11.095 26.627 11.5223 26.3396 12.0002 26.1706V15.8306C11.4151 15.6237 10.9085 15.2404 10.5503 14.7336C10.1921 14.2267 9.99988 13.6212 10.0002 13.0006ZM14.0002 15.8306V26.1706C14.4225 26.3197 14.806 26.5614 15.1227 26.8781C15.4394 27.1948 15.6811 27.5783 15.8302 28.0006H26.1702C26.3193 27.5783 26.5611 27.1948 26.8777 26.8781C27.1944 26.5614 27.5779 26.3197 28.0002 26.1706V15.8306C27.5779 15.6815 27.1944 15.4397 26.8777 15.1231C26.5611 14.8064 26.3193 14.4228 26.1702 14.0006H15.8302C15.6811 14.4228 15.4394 14.8064 15.1227 15.1231C14.806 15.4397 14.4225 15.6815 14.0002 15.8306ZM29.0002 12.0006C28.735 12.0006 28.4806 12.1059 28.2931 12.2935C28.1056 12.481 28.0002 12.7354 28.0002 13.0006C28.0002 13.2658 28.1056 13.5201 28.2931 13.7077C28.4806 13.8952 28.735 14.0006 29.0002 14.0006C29.2654 14.0006 29.5198 13.8952 29.7073 13.7077C29.8949 13.5201 30.0002 13.2658 30.0002 13.0006C30.0002 12.7354 29.8949 12.481 29.7073 12.2935C29.5198 12.1059 29.2654 12.0006 29.0002 12.0006ZM13.0002 28.0006C12.735 28.0006 12.4806 28.1059 12.2931 28.2935C12.1056 28.481 12.0002 28.7354 12.0002 29.0006C12.0002 29.2658 12.1056 29.5201 12.2931 29.7077C12.4806 29.8952 12.735 30.0006 13.0002 30.0006C13.2654 30.0006 13.5198 29.8952 13.7073 29.7077C13.8949 29.5201 14.0002 29.2658 14.0002 29.0006C14.0002 28.7354 13.8949 28.481 13.7073 28.2935C13.5198 28.1059 13.2654 28.0006 13.0002 28.0006ZM29.0002 28.0006C28.735 28.0006 28.4806 28.1059 28.2931 28.2935C28.1056 28.481 28.0002 28.7354 28.0002 29.0006C28.0002 29.2658 28.1056 29.5201 28.2931 29.7077C28.4806 29.8952 28.735 30.0006 29.0002 30.0006C29.2654 30.0006 29.5198 29.8952 29.7073 29.7077C29.8949 29.5201 30.0002 29.2658 30.0002 29.0006C30.0002 28.7354 29.8949 28.481 29.7073 28.2935C29.5198 28.1059 29.2654 28.0006 29.0002 28.0006Z" fill="#DCEDFF"/>
</svg>
