<svg width="40" height="40" viewBox="0 0 40 40" fill="none" xmlns="http://www.w3.org/2000/svg">
<rect y="40" width="40" height="40" rx="19.5751" transform="rotate(-90 0 40)" fill="#123459"/>
<path d="M12.0002 11.0006C11.735 11.0006 11.4806 11.1059 11.2931 11.2935C11.1056 11.481 11.0002 11.7354 11.0002 12.0006C11.0002 12.2658 11.1056 12.5201 11.2931 12.7077C11.4806 12.8952 11.735 13.0006 12.0002 13.0006C12.2654 13.0006 12.5198 12.8952 12.7073 12.7077C12.8949 12.5201 13.0002 12.2658 13.0002 12.0006C13.0002 11.7354 12.8949 11.481 12.7073 11.2935C12.5198 11.1059 12.2654 11.0006 12.0002 11.0006ZM9.00021 12.0006C8.99915 11.2921 9.24887 10.6061 9.70513 10.0641C10.1614 9.52209 10.7948 9.15906 11.493 9.03928C12.1913 8.91951 12.9095 9.05073 13.5203 9.4097C14.1311 9.76868 14.5951 10.3322 14.8302 11.0006H25.1702C25.3393 10.5227 25.6266 10.0954 26.0054 9.7586C26.3843 9.42179 26.8422 9.18643 27.3366 9.07447C27.831 8.96252 28.3457 8.97761 28.8326 9.11836C29.3196 9.2591 29.763 9.5209 30.1214 9.87933C30.4799 10.2378 30.7417 10.6812 30.8824 11.1681C31.0232 11.6551 31.0383 12.1698 30.9263 12.6642C30.8144 13.1586 30.579 13.6165 30.2422 13.9954C29.9054 14.3742 29.4781 14.6615 29.0002 14.8306V25.1706C29.4781 25.3396 29.9054 25.627 30.2422 26.0058C30.579 26.3846 30.8144 26.8426 30.9263 27.337C31.0383 27.8314 31.0232 28.346 30.8824 28.833C30.7417 29.32 30.4799 29.7634 30.1214 30.1218C29.763 30.4802 29.3196 30.742 28.8326 30.8828C28.3457 31.0235 27.831 31.0386 27.3366 30.9267C26.8422 30.8147 26.3843 30.5793 26.0054 30.2425C25.6266 29.9057 25.3393 29.4785 25.1702 29.0006H14.8302C14.6612 29.4785 14.3738 29.9057 13.995 30.2425C13.6162 30.5793 13.1582 30.8147 12.6638 30.9267C12.1694 31.0386 11.6547 31.0235 11.1678 30.8828C10.6808 30.742 10.2374 30.4802 9.87897 30.1218C9.52054 29.7634 9.25874 29.32 9.11799 28.833C8.97725 28.346 8.96215 27.8314 9.07411 27.337C9.18607 26.8426 9.42143 26.3846 9.75824 26.0058C10.095 25.627 10.5223 25.3396 11.0002 25.1706V14.8306C10.4151 14.6237 9.90846 14.2404 9.55026 13.7336C9.19206 13.2267 8.99988 12.6212 9.00021 12.0006ZM13.0002 14.8306V25.1706C13.4225 25.3197 13.806 25.5614 14.1227 25.8781C14.4394 26.1948 14.6811 26.5783 14.8302 27.0006H25.1702C25.3193 26.5783 25.5611 26.1948 25.8777 25.8781C26.1944 25.5614 26.5779 25.3197 27.0002 25.1706V14.8306C26.5779 14.6815 26.1944 14.4397 25.8777 14.1231C25.5611 13.8064 25.3193 13.4228 25.1702 13.0006H14.8302C14.6811 13.4228 14.4394 13.8064 14.1227 14.1231C13.806 14.4397 13.4225 14.6815 13.0002 14.8306ZM28.0002 11.0006C27.735 11.0006 27.4806 11.1059 27.2931 11.2935C27.1056 11.481 27.0002 11.7354 27.0002 12.0006C27.0002 12.2658 27.1056 12.5201 27.2931 12.7077C27.4806 12.8952 27.735 13.0006 28.0002 13.0006C28.2654 13.0006 28.5198 12.8952 28.7073 12.7077C28.8949 12.5201 29.0002 12.2658 29.0002 12.0006C29.0002 11.7354 28.8949 11.481 28.7073 11.2935C28.5198 11.1059 28.2654 11.0006 28.0002 11.0006ZM12.0002 27.0006C11.735 27.0006 11.4806 27.1059 11.2931 27.2935C11.1056 27.481 11.0002 27.7354 11.0002 28.0006C11.0002 28.2658 11.1056 28.5201 11.2931 28.7077C11.4806 28.8952 11.735 29.0006 12.0002 29.0006C12.2654 29.0006 12.5198 28.8952 12.7073 28.7077C12.8949 28.5201 13.0002 28.2658 13.0002 28.0006C13.0002 27.7354 12.8949 27.481 12.7073 27.2935C12.5198 27.1059 12.2654 27.0006 12.0002 27.0006ZM28.0002 27.0006C27.735 27.0006 27.4806 27.1059 27.2931 27.2935C27.1056 27.481 27.0002 27.7354 27.0002 28.0006C27.0002 28.2658 27.1056 28.5201 27.2931 28.7077C27.4806 28.8952 27.735 29.0006 28.0002 29.0006C28.2654 29.0006 28.5198 28.8952 28.7073 28.7077C28.8949 28.5201 29.0002 28.2658 29.0002 28.0006C29.0002 27.7354 28.8949 27.481 28.7073 27.2935C28.5198 27.1059 28.2654 27.0006 28.0002 27.0006Z" fill="#DCEDFF"/>
</svg>
