<svg width="42" height="42" viewBox="0 0 42 42" fill="none" xmlns="http://www.w3.org/2000/svg">
<rect width="42" height="42" rx="6" fill="#123459"/>
<path d="M22.3438 14.75C21.5264 14.75 20.7617 14.9038 20.0498 15.2114C19.3379 15.519 18.7095 15.9409 18.1646 16.4771C17.6196 17.0132 17.1978 17.6372 16.8989 18.3491C16.6001 19.061 16.4463 19.8301 16.4375 20.6562C16.4375 21.4736 16.5913 22.2383 16.8989 22.9502C17.2065 23.6621 17.6284 24.2905 18.1646 24.8354C18.7007 25.3804 19.3247 25.8022 20.0366 26.1011C20.7485 26.3999 21.5176 26.5537 22.3438 26.5625C23.1611 26.5625 23.9258 26.4087 24.6377 26.1011C25.3496 25.7935 25.978 25.3716 26.5229 24.8354C27.0679 24.2993 27.4897 23.6753 27.7886 22.9634C28.0874 22.2515 28.2412 21.4824 28.25 20.6562C28.25 19.8389 28.0962 19.0742 27.7886 18.3623C27.481 17.6504 27.0591 17.022 26.5229 16.4771C25.9868 15.9321 25.3628 15.5103 24.6509 15.2114C23.939 14.9126 23.1699 14.7588 22.3438 14.75ZM22.3438 24.875C21.7637 24.875 21.2188 24.7651 20.709 24.5454C20.1992 24.3257 19.7554 24.0269 19.3774 23.6489C18.9995 23.271 18.6963 22.8228 18.4678 22.3042C18.2393 21.7856 18.125 21.2363 18.125 20.6562C18.125 20.0762 18.2349 19.5312 18.4546 19.0215C18.6743 18.5117 18.9775 18.0679 19.3643 17.6899C19.751 17.312 20.1992 17.0088 20.709 16.7803C21.2188 16.5518 21.7637 16.4375 22.3438 16.4375C22.9238 16.4375 23.4688 16.5474 23.9785 16.7671C24.4883 16.9868 24.9365 17.29 25.3232 17.6768C25.71 18.0635 26.0132 18.5117 26.2329 19.0215C26.4526 19.5312 26.5625 20.0762 26.5625 20.6562C26.5625 21.2363 26.4526 21.7812 26.2329 22.291C26.0132 22.8008 25.7144 23.249 25.3364 23.6357C24.9585 24.0225 24.5103 24.3257 23.9917 24.5454C23.4731 24.7651 22.9238 24.875 22.3438 24.875ZM21.5 13.0625H23.1875V8H21.5V13.0625ZM23.1875 28.25H21.5V33.3125H23.1875V28.25ZM9.6875 19.8125V21.5H14.75V19.8125H9.6875ZM29.9375 21.5H35V19.8125H29.9375V21.5ZM28.3159 15.8838L31.8887 12.2979L30.7021 11.1113L27.1162 14.6841L28.3159 15.8838ZM16.3716 25.4287L12.7988 29.0146L13.9854 30.2012L17.5713 26.6284L16.3716 25.4287ZM16.3716 15.8838L17.5713 14.6841L13.9854 11.1113L12.7988 12.2979L16.3716 15.8838ZM28.3159 25.4287L27.1162 26.6284L30.7021 30.2012L31.8887 29.0146L28.3159 25.4287Z" fill="#DCEDFF"/>
</svg>
