<svg width="40" height="40" viewBox="0 0 40 40" fill="none" xmlns="http://www.w3.org/2000/svg">
<rect y="40" width="40" height="40" rx="19.5751" transform="rotate(-90 0 40)" fill="#123459"/>
<path d="M20.3438 13.75C19.5264 13.75 18.7617 13.9038 18.0498 14.2114C17.3379 14.519 16.7095 14.9409 16.1646 15.4771C15.6196 16.0132 15.1978 16.6372 14.8989 17.3491C14.6001 18.061 14.4463 18.8301 14.4375 19.6562C14.4375 20.4736 14.5913 21.2383 14.8989 21.9502C15.2065 22.6621 15.6284 23.2905 16.1646 23.8354C16.7007 24.3804 17.3247 24.8022 18.0366 25.1011C18.7485 25.3999 19.5176 25.5537 20.3438 25.5625C21.1611 25.5625 21.9258 25.4087 22.6377 25.1011C23.3496 24.7935 23.978 24.3716 24.5229 23.8354C25.0679 23.2993 25.4897 22.6753 25.7886 21.9634C26.0874 21.2515 26.2412 20.4824 26.25 19.6562C26.25 18.8389 26.0962 18.0742 25.7886 17.3623C25.481 16.6504 25.0591 16.022 24.5229 15.4771C23.9868 14.9321 23.3628 14.5103 22.6509 14.2114C21.939 13.9126 21.1699 13.7588 20.3438 13.75ZM20.3438 23.875C19.7637 23.875 19.2188 23.7651 18.709 23.5454C18.1992 23.3257 17.7554 23.0269 17.3774 22.6489C16.9995 22.271 16.6963 21.8228 16.4678 21.3042C16.2393 20.7856 16.125 20.2363 16.125 19.6562C16.125 19.0762 16.2349 18.5312 16.4546 18.0215C16.6743 17.5117 16.9775 17.0679 17.3643 16.6899C17.751 16.312 18.1992 16.0088 18.709 15.7803C19.2188 15.5518 19.7637 15.4375 20.3438 15.4375C20.9238 15.4375 21.4688 15.5474 21.9785 15.7671C22.4883 15.9868 22.9365 16.29 23.3232 16.6768C23.71 17.0635 24.0132 17.5117 24.2329 18.0215C24.4526 18.5312 24.5625 19.0762 24.5625 19.6562C24.5625 20.2363 24.4526 20.7812 24.2329 21.291C24.0132 21.8008 23.7144 22.249 23.3364 22.6357C22.9585 23.0225 22.5103 23.3257 21.9917 23.5454C21.4731 23.7651 20.9238 23.875 20.3438 23.875ZM19.5 12.0625H21.1875V7H19.5V12.0625ZM21.1875 27.25H19.5V32.3125H21.1875V27.25ZM7.6875 18.8125V20.5H12.75V18.8125H7.6875ZM27.9375 20.5H33V18.8125H27.9375V20.5ZM26.3159 14.8838L29.8887 11.2979L28.7021 10.1113L25.1162 13.6841L26.3159 14.8838ZM14.3716 24.4287L10.7988 28.0146L11.9854 29.2012L15.5713 25.6284L14.3716 24.4287ZM14.3716 14.8838L15.5713 13.6841L11.9854 10.1113L10.7988 11.2979L14.3716 14.8838ZM26.3159 24.4287L25.1162 25.6284L28.7021 29.2012L29.8887 28.0146L26.3159 24.4287Z" fill="#DCEDFF"/>
</svg>
