<svg width="16" height="16" viewBox="0 0 16 16" fill="none" xmlns="http://www.w3.org/2000/svg">
<path d="M1 7.05556L2.50261 3.07656C2.74722 2.42882 3.37045 2 4.06687 2H11.9331C12.6295 2 13.2528 2.42882 13.4974 3.07656L15 7.05556M1 7.05556H15M1 7.05556V13.5556M15 7.05556V13.5556M15 13.5556H1M15 13.5556V15H13.7273V13.5556M1 13.5556V15H2.27273V13.5556" stroke="#123459" stroke-linecap="round" stroke-linejoin="round"/>
<path d="M4.5 10.5C4.77614 10.5 5 10.2761 5 10C5 9.72386 4.77614 9.5 4.5 9.5C4.22386 9.5 4 9.72386 4 10C4 10.2761 4.22386 10.5 4.5 10.5Z" stroke="#123459" stroke-linecap="round" stroke-linejoin="round"/>
<path d="M11.5 10.5C11.7761 10.5 12 10.2761 12 10C12 9.72386 11.7761 9.5 11.5 9.5C11.2239 9.5 11 9.72386 11 10C11 10.2761 11.2239 10.5 11.5 10.5Z" stroke="#123459" stroke-linecap="round" stroke-linejoin="round"/>
</svg>
