<svg width="28" height="28" viewBox="0 0 28 28" fill="none" xmlns="http://www.w3.org/2000/svg">
<rect width="28" height="28" rx="14" fill="#123459"/>
<path fill-rule="evenodd" clip-rule="evenodd" d="M15.5852 6.68391L8.82505 13.4562C8.7642 13.5143 8.71591 13.5843 8.68317 13.6619C8.65042 13.7394 8.63391 13.8228 8.63465 13.907C8.63428 13.993 8.65091 14.0783 8.68358 14.1579C8.71625 14.2375 8.76433 14.3099 8.82505 14.3708C11.2704 16.7564 13.6271 19.059 15.8951 21.2784C16.0117 21.3876 16.4784 21.6592 16.8387 21.256C17.1989 20.8519 16.9805 20.5 16.8387 20.3544L10.2419 13.907L16.5391 7.59857C16.7687 7.28186 16.75 6.98973 16.4831 6.72217C16.2155 6.45462 15.9162 6.44124 15.5852 6.68391Z" fill="#F0EFEB"/>
</svg>
