<svg width="30" height="30" viewBox="0 0 30 30" fill="none" xmlns="http://www.w3.org/2000/svg">
<path d="M22.8754 7.13594C22.3879 6.64844 21.6004 6.64844 21.1129 7.13594L15.0004 13.2359L8.88789 7.12344C8.40039 6.63594 7.61289 6.63594 7.12539 7.12344C6.63789 7.61094 6.63789 8.39844 7.12539 8.88594L13.2379 14.9984L7.12539 21.1109C6.63789 21.5984 6.63789 22.3859 7.12539 22.8734C7.61289 23.3609 8.40039 23.3609 8.88789 22.8734L15.0004 16.7609L21.1129 22.8734C21.6004 23.3609 22.3879 23.3609 22.8754 22.8734C23.3629 22.3859 23.3629 21.5984 22.8754 21.1109L16.7629 14.9984L22.8754 8.88594C23.3504 8.41094 23.3504 7.61094 22.8754 7.13594Z" fill="#123459"/>
</svg>
