<svg width="24" height="24" viewBox="0 0 24 24" fill="none" xmlns="http://www.w3.org/2000/svg">
<path d="M7.2 17.744L12 12.944L16.8 17.744L17.744 16.8L12.944 12L17.744 7.2L16.8 6.256L12 11.056L7.2 6.256L6.256 7.2L11.056 12L6.256 16.8L7.2 17.744ZM12.004 24C10.3453 24 8.78533 23.6853 7.324 23.056C5.86356 22.4258 4.59289 21.5707 3.512 20.4907C2.43111 19.4107 1.57556 18.1413 0.945333 16.6827C0.315111 15.224 0 13.6644 0 12.004C0 10.3436 0.315111 8.78355 0.945333 7.324C1.57467 5.86355 2.42844 4.59289 3.50667 3.512C4.58489 2.43111 5.85467 1.57556 7.316 0.945333C8.77733 0.315111 10.3373 0 11.996 0C13.6547 0 15.2147 0.315111 16.676 0.945333C18.1364 1.57467 19.4071 2.42889 20.488 3.508C21.5689 4.58711 22.4244 5.85689 23.0547 7.31733C23.6849 8.77778 24 10.3373 24 11.996C24 13.6547 23.6853 15.2147 23.056 16.676C22.4267 18.1373 21.5716 19.408 20.4907 20.488C19.4098 21.568 18.1404 22.4236 16.6827 23.0547C15.2249 23.6858 13.6653 24.0009 12.004 24ZM12 22.6667C14.9778 22.6667 17.5 21.6333 19.5667 19.5667C21.6333 17.5 22.6667 14.9778 22.6667 12C22.6667 9.02222 21.6333 6.5 19.5667 4.43333C17.5 2.36667 14.9778 1.33333 12 1.33333C9.02222 1.33333 6.5 2.36667 4.43333 4.43333C2.36667 6.5 1.33333 9.02222 1.33333 12C1.33333 14.9778 2.36667 17.5 4.43333 19.5667C6.5 21.6333 9.02222 22.6667 12 22.6667Z" fill="#EFEFEC"/>
</svg>
