<svg width="16" height="16" viewBox="0 0 16 16" fill="none" xmlns="http://www.w3.org/2000/svg">
<g clip-path="url(#clip0_913_1205)">
<path d="M8.12927 11.5632V7.30589M15.1681 8.08398C15.1693 9.01406 14.9869 9.93523 14.6314 10.7947C14.2759 11.6542 13.7543 12.435 13.0965 13.0925C12.4383 13.7508 11.6569 14.273 10.7968 14.6291C9.93677 14.9852 9.01496 15.1683 8.08409 15.168C7.08222 15.1702 6.0914 14.9587 5.17774 14.5476L2.21626 14.9857C2.06922 15.0097 1.91854 14.9974 1.77731 14.95C1.63608 14.9025 1.50857 14.8213 1.40586 14.7134C1.30314 14.6055 1.22833 14.4741 1.18792 14.3307C1.1475 14.1873 1.14271 14.0362 1.17396 13.8905L1.58521 10.8862C1.19402 10.0041 0.994585 9.04893 1.00011 8.08398C0.998923 7.15389 1.1813 6.23272 1.53678 5.37325C1.89226 4.51378 2.41387 3.73292 3.0717 3.07541C3.72985 2.41712 4.51129 1.89499 5.37135 1.53887C6.2314 1.18276 7.15322 0.999646 8.08409 1C9.96392 1.00013 11.7668 1.74662 13.0965 3.07541C13.754 3.73317 14.2754 4.51408 14.6308 5.37349C14.9863 6.2329 15.1688 7.15396 15.1681 8.08398Z" stroke="#123459" stroke-linecap="round" stroke-linejoin="round"/>
<path d="M8.03906 4.60156H8.04306" stroke="#123459" stroke-width="1.33333" stroke-linecap="round" stroke-linejoin="round"/>
</g>
<defs>
<clipPath id="clip0_913_1205">
<rect width="16" height="16" fill="white"/>
</clipPath>
</defs>
</svg>
