<svg width="24" height="24" viewBox="0 0 24 24" fill="none" xmlns="http://www.w3.org/2000/svg">
<g clip-path="url(#clip0_1694_5710)">
<path d="M6.40078 12.0008L11.2008 16.0008L17.6008 8.00078M12.0008 23.2008C10.53 23.2008 9.07357 22.9111 7.71473 22.3482C6.35588 21.7854 5.1212 20.9604 4.08119 19.9204C3.04117 18.8804 2.21618 17.6457 1.65333 16.2868C1.09048 14.928 0.800781 13.4716 0.800781 12.0008C0.800781 10.53 1.09048 9.07357 1.65333 7.71473C2.21618 6.35588 3.04117 5.1212 4.08119 4.08119C5.1212 3.04117 6.35588 2.21618 7.71473 1.65333C9.07357 1.09048 10.53 0.800781 12.0008 0.800781C14.9712 0.800781 17.82 1.98078 19.9204 4.08119C22.0208 6.18159 23.2008 9.03036 23.2008 12.0008C23.2008 14.9712 22.0208 17.82 19.9204 19.9204C17.82 22.0208 14.9712 23.2008 12.0008 23.2008Z" stroke="#EFEFEC"/>
</g>
<defs>
<clipPath id="clip0_1694_5710">
<rect width="24" height="24" fill="white"/>
</clipPath>
</defs>
</svg>
