<svg width="40" height="40" viewBox="0 0 40 40" fill="none" xmlns="http://www.w3.org/2000/svg">
<rect y="40" width="40" height="40" rx="19.5751" transform="rotate(-90 0 40)" fill="#123459"/>
<path d="M30.5 10.5605L29.4395 9.5L26.8655 12.074C24.9631 10.4148 22.5243 9.50041 20 9.5C14.21 9.5 9.5 14.21 9.5 20C9.5 22.625 10.475 25.0227 12.074 26.8655L9.5 29.4395L10.5605 30.5L13.1345 27.926C15.0369 29.5852 17.4757 30.4996 20 30.5C25.79 30.5 30.5 25.79 30.5 20C30.5 17.375 29.525 14.9773 27.926 13.1345L30.5 10.5605ZM11 20C11 15.0373 15.0373 11 20 11C22.127 10.9993 24.1848 11.7557 25.805 13.1337L13.1345 25.8057C11.756 24.1855 10.9993 22.1274 11 20ZM29 20C29 24.9628 24.9628 29 20 29C17.873 29.0007 15.8152 28.2443 14.195 26.8663L26.8663 14.1943C28.2445 15.8146 29.0009 17.8727 29 20Z" fill="#DCEDFF"/>
</svg>
