<svg width="42" height="42" viewBox="0 0 42 42" fill="none" xmlns="http://www.w3.org/2000/svg">
<rect width="42" height="42" rx="6" fill="#123459"/>
<path d="M31.5 11.5605L30.4395 10.5L27.8655 13.074C25.9631 11.4148 23.5243 10.5004 21 10.5C15.21 10.5 10.5 15.21 10.5 21C10.5 23.625 11.475 26.0227 13.074 27.8655L10.5 30.4395L11.5605 31.5L14.1345 28.926C16.0369 30.5852 18.4757 31.4996 21 31.5C26.79 31.5 31.5 26.79 31.5 21C31.5 18.375 30.525 15.9773 28.926 14.1345L31.5 11.5605ZM12 21C12 16.0373 16.0373 12 21 12C23.127 11.9993 25.1848 12.7557 26.805 14.1337L14.1345 26.8057C12.756 25.1855 11.9993 23.1274 12 21ZM30 21C30 25.9628 25.9628 30 21 30C18.873 30.0007 16.8152 29.2443 15.195 27.8663L27.8663 15.1943C29.2445 16.8146 30.0009 18.8727 30 21Z" fill="#DCEDFF"/>
</svg>
