<svg width="40" height="40" viewBox="0 0 40 40" fill="none" xmlns="http://www.w3.org/2000/svg">
<rect y="40" width="40" height="40" rx="19.5751" transform="rotate(-90 0 40)" fill="#123459"/>
<path d="M17.7489 28.8481C19.5289 28.1481 19.1389 26.2181 18.2389 24.9981C17.3489 23.7481 16.1189 22.8881 14.8789 22.0581C13.9939 21.5007 13.2039 20.8053 12.5389 19.9981C12.2589 19.6681 11.6889 19.0581 12.2689 18.9381C12.8589 18.8181 13.8789 19.3981 14.3989 19.6181C15.3089 19.9981 16.2089 20.4381 17.0489 20.9581L18.0589 19.2581C16.4989 18.2281 14.4989 17.3181 12.6389 17.0481C11.5789 16.8881 10.4589 17.1081 10.0989 18.2581C9.77886 19.2481 10.2889 20.2481 10.8689 21.0281C12.2389 22.8581 14.3689 23.7381 15.9589 25.3181C16.2989 25.6481 16.7089 26.0381 16.9089 26.4981C17.1189 26.9381 17.0689 26.9681 16.5989 26.9681C15.3589 26.9681 13.8089 25.9981 12.7989 25.3581L11.7889 27.0581C13.3189 27.9981 15.8789 29.4681 17.7489 28.8481ZM28.8389 13.2481C29.0589 13.0281 29.0589 12.6681 28.8389 12.4581L27.5389 11.1581C27.4344 11.0567 27.2945 11 27.1489 11C27.0032 11 26.8634 11.0567 26.7589 11.1581L25.7389 12.1781L27.8189 14.2581M18.9989 18.9181V20.9981H21.0789L27.2289 14.8481L25.1489 12.7681L18.9989 18.9181Z" fill="#DCEDFF"/>
</svg>
