<svg width="42" height="42" viewBox="0 0 42 42" fill="none" xmlns="http://www.w3.org/2000/svg">
<rect width="42" height="42" rx="6" fill="#123459"/>
<path d="M18.7489 29.8481C20.5289 29.1481 20.1389 27.2181 19.2389 25.9981C18.3489 24.7481 17.1189 23.8881 15.8789 23.0581C14.9939 22.5007 14.2039 21.8053 13.5389 20.9981C13.2589 20.6681 12.6889 20.0581 13.2689 19.9381C13.8589 19.8181 14.8789 20.3981 15.3989 20.6181C16.3089 20.9981 17.2089 21.4381 18.0489 21.9581L19.0589 20.2581C17.4989 19.2281 15.4989 18.3181 13.6389 18.0481C12.5789 17.8881 11.4589 18.1081 11.0989 19.2581C10.7789 20.2481 11.2889 21.2481 11.8689 22.0281C13.2389 23.8581 15.3689 24.7381 16.9589 26.3181C17.2989 26.6481 17.7089 27.0381 17.9089 27.4981C18.1189 27.9381 18.0689 27.9681 17.5989 27.9681C16.3589 27.9681 14.8089 26.9981 13.7989 26.3581L12.7889 28.0581C14.3189 28.9981 16.8789 30.4681 18.7489 29.8481ZM29.8389 14.2481C30.0589 14.0281 30.0589 13.6681 29.8389 13.4581L28.5389 12.1581C28.4344 12.0567 28.2945 12 28.1489 12C28.0032 12 27.8634 12.0567 27.7589 12.1581L26.7389 13.1781L28.8189 15.2581M19.9989 19.9181V21.9981H22.0789L28.2289 15.8481L26.1489 13.7681L19.9989 19.9181Z" fill="#DCEDFF"/>
</svg>
