<svg width="28" height="28" viewBox="0 0 28 28" fill="none" xmlns="http://www.w3.org/2000/svg">
<path fill-rule="evenodd" clip-rule="evenodd" d="M25.3763 14.0014L26.1025 13.6374V13.6339L26.0973 13.6287L26.0868 13.6077L26.05 13.5377L25.91 13.2857C25.7392 12.991 25.5576 12.7026 25.3658 12.4212C24.7255 11.4813 23.9895 10.6104 23.1695 9.82241C21.199 7.93241 18.1663 6.00391 14.0013 6.00391C9.83977 6.00391 6.80527 7.93066 4.83477 9.82241C4.01483 10.6104 3.27881 11.4813 2.63852 12.4212C2.37871 12.8045 2.13808 13.2005 1.91752 13.6077L1.90702 13.6287L1.90352 13.6339V13.6357C1.90352 13.6357 1.90177 13.6374 2.62802 14.0014L1.90177 13.6357C1.84562 13.7491 1.81641 13.874 1.81641 14.0005C1.81641 14.1271 1.84562 14.252 1.90177 14.3654L1.90002 14.3689L1.90527 14.3742L1.91577 14.3952C1.97034 14.5045 2.02871 14.6119 2.09077 14.7172C2.84432 15.9901 3.76613 17.1556 4.83127 18.1822C6.80352 20.0722 9.83627 21.9972 14.0013 21.9972C18.1645 21.9972 21.199 20.0722 23.1713 18.1804C23.9897 17.3915 24.725 16.5207 25.3658 15.5817C25.6111 15.2204 25.8395 14.8478 26.05 14.4652L26.0868 14.3952L26.0973 14.3742L26.1008 14.3689V14.3672C26.1008 14.3672 26.1025 14.3654 25.3763 14.0014ZM25.3763 14.0014L26.1025 14.3672C26.1587 14.2537 26.1879 14.1289 26.1879 14.0023C26.1879 13.8757 26.1587 13.7508 26.1025 13.6374L25.3763 14.0014ZM13.8963 11.3134C13.1834 11.3134 12.4997 11.5966 11.9956 12.1007C11.4915 12.6048 11.2083 13.2885 11.2083 14.0014C11.2083 14.7143 11.4915 15.398 11.9956 15.9021C12.4997 16.4062 13.1834 16.6894 13.8963 16.6894C14.6092 16.6894 15.2929 16.4062 15.797 15.9021C16.3011 15.398 16.5843 14.7143 16.5843 14.0014C16.5843 13.2885 16.3011 12.6048 15.797 12.1007C15.2929 11.5966 14.6092 11.3134 13.8963 11.3134ZM9.58777 14.0014C9.58777 12.8578 10.0421 11.761 10.8507 10.9524C11.6594 10.1437 12.7562 9.68941 13.8998 9.68941C15.0434 9.68941 16.1402 10.1437 16.9488 10.9524C17.7575 11.761 18.2118 12.8578 18.2118 14.0014C18.2118 15.145 17.7575 16.2418 16.9488 17.0505C16.1402 17.8591 15.0434 18.3134 13.8998 18.3134C12.7562 18.3134 11.6594 17.8591 10.8507 17.0505C10.0421 16.2418 9.58777 15.145 9.58777 14.0014Z" fill="#123459"/>
</svg>
