<svg width="44" height="45" viewBox="0 0 44 45" fill="none" xmlns="http://www.w3.org/2000/svg">
<mask id="mask0_744_677" style="mask-type:alpha" maskUnits="userSpaceOnUse" x="8" y="8" width="29" height="30">
<rect x="8.42578" y="8.92188" width="28.322" height="28.322" fill="#D9D9D9"/>
</mask>
<g mask="url(#mask0_744_677)">
<path d="M11.9617 33.7028C11.3127 33.7028 10.7571 33.4717 10.2949 33.0095C9.83266 32.5473 9.60156 31.9917 9.60156 31.3426V16.0016H11.9617V31.3426H32.0231V33.7028H11.9617ZM16.6821 28.9825C16.033 28.9825 15.4774 28.7514 15.0152 28.2892C14.553 27.827 14.3219 27.2714 14.3219 26.6223V13.6414C14.3219 12.9924 14.553 12.4367 15.0152 11.9745C15.4774 11.5123 16.033 11.2812 16.6821 11.2812H22.5825L24.9426 13.6414H33.2032C33.8522 13.6414 34.4079 13.8725 34.8701 14.3347C35.3323 14.7969 35.5634 15.3525 35.5634 16.0016V26.6223C35.5634 27.2714 35.3323 27.827 34.8701 28.2892C34.4079 28.7514 33.8522 28.9825 33.2032 28.9825H16.6821ZM16.6821 26.6223H33.2032V16.0016H23.9691L21.6089 13.6414H16.6821V26.6223Z" fill="#F1EFEC"/>
</g>
<circle cx="22" cy="22.5" r="21" stroke="#F1EFEC" stroke-width="2"/>
</svg>
