<svg width="16" height="16" viewBox="0 0 16 16" fill="none" xmlns="http://www.w3.org/2000/svg">
<path d="M2.66667 2H13.3333C13.5101 2 13.6797 2.07024 13.8047 2.19526C13.9298 2.32029 14 2.48986 14 2.66667V3.724C14 3.9008 13.9297 4.07034 13.8047 4.19533L9.52867 8.47133C9.40363 8.59633 9.33337 8.76587 9.33333 8.94267V13.146C9.33333 13.2473 9.31023 13.3473 9.26578 13.4384C9.22133 13.5295 9.1567 13.6092 9.07681 13.6716C8.99692 13.7339 8.90387 13.7772 8.80473 13.7982C8.70559 13.8192 8.60297 13.8173 8.50467 13.7927L7.17133 13.4593C7.02717 13.4232 6.89921 13.34 6.80777 13.2228C6.71634 13.1056 6.66667 12.9613 6.66667 12.8127V8.94267C6.66663 8.76587 6.59637 8.59633 6.47133 8.47133L2.19533 4.19533C2.0703 4.07034 2.00004 3.9008 2 3.724V2.66667C2 2.48986 2.07024 2.32029 2.19526 2.19526C2.32029 2.07024 2.48986 2 2.66667 2Z" stroke="#123459" stroke-linecap="round" stroke-linejoin="round"/>
</svg>
