<svg width="40" height="40" viewBox="0 0 40 40" fill="none" xmlns="http://www.w3.org/2000/svg">
<rect y="40" width="40" height="40" rx="19.5751" transform="rotate(-90 0 40)" fill="#123459"/>
<path d="M27 20H25V22.75H22V24.5833H27V20ZM15 17.25H18V15.4167H13V20H15V17.25ZM29 11.75H11C10.4696 11.75 9.96086 11.9432 9.58579 12.287C9.21071 12.6308 9 13.0971 9 13.5833V26.4167C9 26.9029 9.21071 27.3692 9.58579 27.713C9.96086 28.0568 10.4696 28.25 11 28.25H29C29.5304 28.25 30.0391 28.0568 30.4142 27.713C30.7893 27.3692 31 26.9029 31 26.4167V13.5833C31 13.0971 30.7893 12.6308 30.4142 12.287C30.0391 11.9432 29.5304 11.75 29 11.75ZM29 26.4167H11V13.5833H29V26.4167Z" fill="#DCEDFF"/>
</svg>
