<svg width="24" height="24" viewBox="0 0 24 24" fill="none" xmlns="http://www.w3.org/2000/svg">
<circle cx="12" cy="12" r="11" fill="#008C76" stroke="#008C76" stroke-width="2"/>
<path fill-rule="evenodd" clip-rule="evenodd" d="M17.5101 7.9047C17.5611 7.95197 17.6023 8.00883 17.6313 8.07201C17.6603 8.1352 17.6766 8.20349 17.6792 8.27297C17.6819 8.34245 17.6708 8.41177 17.6466 8.47696C17.6224 8.54216 17.5857 8.60195 17.5384 8.65294L10.656 16.0647C10.6054 16.1192 10.5438 16.1625 10.4754 16.1916C10.4069 16.2207 10.333 16.2351 10.2586 16.2337C10.1842 16.2324 10.111 16.2154 10.0436 16.1839C9.97619 16.1523 9.91621 16.1069 9.86756 16.0506L6.51461 12.1682C6.43281 12.0606 6.39509 11.9259 6.40912 11.7914C6.42316 11.657 6.48789 11.5329 6.59015 11.4445C6.69241 11.3561 6.82452 11.31 6.95959 11.3155C7.09465 11.3211 7.22253 11.3779 7.3172 11.4743L10.2819 14.912L16.7619 7.93082C16.8092 7.87988 16.8661 7.83876 16.9293 7.8098C16.9925 7.78085 17.0608 7.76463 17.1303 7.76208C17.1998 7.75952 17.2691 7.77068 17.3343 7.7949C17.3994 7.81913 17.4592 7.85596 17.5101 7.90329V7.9047Z" fill="#F0EFEB"/>
</svg>
