<svg width="44" height="44" viewBox="0 0 44 44" fill="none" xmlns="http://www.w3.org/2000/svg">
<path d="M25.6667 18.3333V25.6667H18.3333V18.3333H25.6667ZM29.3333 18.3333H38.5V25.6667H29.3333V18.3333ZM25.6667 38.5H18.3333V29.3333H25.6667V38.5ZM29.3333 38.5V29.3333H38.5V36.6667C38.5 37.1529 38.3068 37.6192 37.963 37.963C37.6192 38.3068 37.1529 38.5 36.6667 38.5H29.3333ZM25.6667 5.5V14.6667H18.3333V5.5H25.6667ZM29.3333 5.5H36.6667C37.1529 5.5 37.6192 5.69315 37.963 6.03697C38.3068 6.38079 38.5 6.8471 38.5 7.33333V14.6667H29.3333V5.5ZM14.6667 18.3333V25.6667H5.5V18.3333H14.6667ZM14.6667 38.5H7.33333C6.8471 38.5 6.38079 38.3068 6.03697 37.963C5.69315 37.6192 5.5 37.1529 5.5 36.6667V29.3333H14.6667V38.5ZM14.6667 5.5V14.6667H5.5V7.33333C5.5 6.8471 5.69315 6.38079 6.03697 6.03697C6.38079 5.69315 6.8471 5.5 7.33333 5.5H14.6667Z" fill="#123459"/>
</svg>
