<svg width="40" height="40" viewBox="0 0 40 40" fill="none" xmlns="http://www.w3.org/2000/svg">
<rect y="40" width="40" height="40" rx="19.5751" transform="rotate(-90 0 40)" fill="#123459"/>
<path d="M30 24.2108V13.1851C30 12.4429 29.3372 11.8405 28.5206 11.8405C27.704 11.8405 27.0412 12.4429 27.0412 13.1851V19.9081H25.8577V9.95811C25.8577 9.21589 25.195 8.61351 24.3784 8.61351C23.5617 8.61351 22.899 9.21589 22.899 9.95811V19.9081H21.7155V8.3446C21.7155 7.60238 21.0527 7 20.2361 7C19.4195 7 18.7567 7.60238 18.7567 8.3446V19.9081H17.5732V10.4959C17.5732 9.75373 16.9105 9.15135 16.0939 9.15135C15.2772 9.15135 14.6145 9.75373 14.6145 10.4959V23.1351H13.7269L12.0581 19.338C11.7977 18.7464 11.2533 18.2946 10.5906 18.0902L9.6556 17.8105C8.69697 17.5309 7.82117 18.3807 8.18806 19.2304L11.7741 27.4378C13.2061 30.6649 16.6738 32.8162 20.532 32.8162C25.7631 32.8162 30 28.9653 30 24.2108Z" fill="#DCEDFF"/>
</svg>
