<svg width="42" height="42" viewBox="0 0 42 42" fill="none" xmlns="http://www.w3.org/2000/svg">
<rect width="42" height="42" rx="6" fill="#123459"/>
<path d="M32 25.2108V14.1851C32 13.4429 31.3372 12.8405 30.5206 12.8405C29.704 12.8405 29.0412 13.4429 29.0412 14.1851V20.9081H27.8577V10.9581C27.8577 10.2159 27.195 9.61351 26.3784 9.61351C25.5617 9.61351 24.899 10.2159 24.899 10.9581V20.9081H23.7155V9.3446C23.7155 8.60238 23.0527 8 22.2361 8C21.4195 8 20.7567 8.60238 20.7567 9.3446V20.9081H19.5732V11.4959C19.5732 10.7537 18.9105 10.1514 18.0939 10.1514C17.2772 10.1514 16.6145 10.7537 16.6145 11.4959V24.1351H15.7269L14.0581 20.338C13.7977 19.7464 13.2533 19.2946 12.5906 19.0902L11.6556 18.8105C10.697 18.5309 9.82117 19.3807 10.1881 20.2304L13.7741 28.4378C15.2061 31.6649 18.6738 33.8162 22.532 33.8162C27.7631 33.8162 32 29.9653 32 25.2108Z" fill="#DCEDFF"/>
</svg>
