<svg width="323" height="164" viewBox="0 0 323 164" fill="none" xmlns="http://www.w3.org/2000/svg">
<line y1="-0.5" x2="158.003" y2="-0.5" transform="matrix(0.00629009 0.99998 -0.99998 0.00636812 22.8555 5)" stroke="#123459"/>
<path d="M34.7812 13C34.7812 8.58172 38.363 5 42.7812 5H76.474C80.8923 5 84.474 8.58172 84.474 13V162H34.7812V13Z" fill="#8CA9CA"/>
<path d="M111.309 68C111.309 63.5817 114.89 60 119.309 60H153.001C157.42 60 161.001 63.5817 161.001 68V162H111.309V68Z" fill="#DCB900"/>
<path d="M187.84 92C187.84 87.5817 191.422 84 195.84 84H229.533C233.951 84 237.533 87.5817 237.533 92V162H187.84V92Z" fill="#19B71F"/>
<path d="M264.363 115C264.363 110.582 267.945 107 272.363 107H306.056C310.474 107 314.056 110.582 314.056 115V162H264.363V115Z" fill="#CE3939"/>
<line x1="23.8516" y1="162.5" x2="323.002" y2="162.5" stroke="#123459"/>
<path d="M3.44409 14V5.816L3.97209 6.224H1.50009V5.24H4.59609V14H3.44409ZM9.82716 14.216C9.15516 14.216 8.58716 14.08 8.12316 13.808C7.65916 13.528 7.30716 13.164 7.06716 12.716C6.82716 12.268 6.70716 11.792 6.70716 11.288H7.83516C7.83516 11.656 7.91516 11.984 8.07516 12.272C8.24316 12.56 8.47516 12.788 8.77116 12.956C9.06716 13.124 9.41916 13.208 9.82716 13.208C10.2272 13.208 10.5752 13.128 10.8712 12.968C11.1752 12.8 11.4112 12.572 11.5792 12.284C11.7472 11.988 11.8312 11.656 11.8312 11.288C11.8312 10.92 11.7472 10.588 11.5792 10.292C11.4192 9.996 11.1872 9.76 10.8832 9.584C10.5872 9.408 10.2352 9.32 9.82716 9.32C9.53116 9.32 9.23116 9.372 8.92716 9.476C8.62316 9.572 8.37916 9.712 8.19516 9.896H7.13916L7.58316 5.24H12.1792V6.224H8.25516L8.54316 5.828L8.20716 9.224L7.89516 9.116C8.12716 8.884 8.40716 8.7 8.73516 8.564C9.07116 8.428 9.45116 8.36 9.87516 8.36C10.5472 8.36 11.1112 8.5 11.5672 8.78C12.0232 9.052 12.3672 9.408 12.5992 9.848C12.8392 10.28 12.9592 10.732 12.9592 11.204V11.372C12.9592 11.844 12.8392 12.3 12.5992 12.74C12.3592 13.172 12.0032 13.528 11.5312 13.808C11.0672 14.08 10.4992 14.216 9.82716 14.216Z" fill="#434343"/>
<path d="M3.44409 62V53.816L3.97209 54.224H1.50009V53.24H4.59609V62H3.44409ZM10.4992 62.216C9.84316 62.216 9.28316 62.104 8.81916 61.88C8.36316 61.648 7.99116 61.336 7.70316 60.944C7.42316 60.552 7.21916 60.1 7.09116 59.588C6.96316 59.068 6.89916 58.52 6.89916 57.944V57.296C6.89916 56.488 7.02316 55.76 7.27116 55.112C7.52716 54.464 7.91916 53.952 8.44716 53.576C8.98316 53.192 9.66716 53 10.4992 53C11.3312 53 12.0112 53.192 12.5392 53.576C13.0672 53.952 13.4552 54.464 13.7032 55.112C13.9592 55.76 14.0872 56.488 14.0872 57.296V57.944C14.0872 58.52 14.0232 59.068 13.8952 59.588C13.7672 60.1 13.5592 60.552 13.2712 60.944C12.9912 61.336 12.6232 61.648 12.1672 61.88C11.7112 62.104 11.1552 62.216 10.4992 62.216ZM10.4992 61.16C11.3312 61.16 11.9392 60.88 12.3232 60.32C12.7152 59.752 12.9112 58.856 12.9112 57.632C12.9112 56.352 12.7112 55.436 12.3112 54.884C11.9192 54.332 11.3152 54.056 10.4992 54.056C9.67516 54.056 9.06316 54.332 8.66316 54.884C8.27116 55.436 8.07516 56.344 8.07516 57.608C8.07516 58.84 8.27116 59.74 8.66316 60.308C9.05516 60.876 9.66716 61.16 10.4992 61.16Z" fill="#434343"/>
<path d="M4.464 110.216C3.808 110.216 3.248 110.104 2.784 109.88C2.328 109.648 1.956 109.336 1.668 108.944C1.388 108.552 1.184 108.1 1.056 107.588C0.928 107.068 0.864 106.52 0.864 105.944V105.296C0.864 104.488 0.988 103.76 1.236 103.112C1.492 102.464 1.884 101.952 2.412 101.576C2.948 101.192 3.632 101 4.464 101C5.296 101 5.976 101.192 6.504 101.576C7.032 101.952 7.42 102.464 7.668 103.112C7.924 103.76 8.052 104.488 8.052 105.296V105.944C8.052 106.52 7.988 107.068 7.86 107.588C7.732 108.1 7.524 108.552 7.236 108.944C6.956 109.336 6.588 109.648 6.132 109.88C5.676 110.104 5.12 110.216 4.464 110.216ZM4.464 109.16C5.296 109.16 5.904 108.88 6.288 108.32C6.68 107.752 6.876 106.856 6.876 105.632C6.876 104.352 6.676 103.436 6.276 102.884C5.884 102.332 5.28 102.056 4.464 102.056C3.64 102.056 3.028 102.332 2.628 102.884C2.236 103.436 2.04 104.344 2.04 105.608C2.04 106.84 2.236 107.74 2.628 108.308C3.02 108.876 3.632 109.16 4.464 109.16ZM12.71 110.216C12.038 110.216 11.47 110.08 11.006 109.808C10.542 109.528 10.19 109.164 9.94997 108.716C9.70997 108.268 9.58997 107.792 9.58997 107.288H10.718C10.718 107.656 10.798 107.984 10.958 108.272C11.126 108.56 11.358 108.788 11.654 108.956C11.95 109.124 12.302 109.208 12.71 109.208C13.11 109.208 13.458 109.128 13.754 108.968C14.058 108.8 14.294 108.572 14.462 108.284C14.63 107.988 14.714 107.656 14.714 107.288C14.714 106.92 14.63 106.588 14.462 106.292C14.302 105.996 14.07 105.76 13.766 105.584C13.47 105.408 13.118 105.32 12.71 105.32C12.414 105.32 12.114 105.372 11.81 105.476C11.506 105.572 11.262 105.712 11.078 105.896H10.022L10.466 101.24H15.062V102.224H11.138L11.426 101.828L11.09 105.224L10.778 105.116C11.01 104.884 11.29 104.7 11.618 104.564C11.954 104.428 12.334 104.36 12.758 104.36C13.43 104.36 13.994 104.5 14.45 104.78C14.906 105.052 15.25 105.408 15.482 105.848C15.722 106.28 15.842 106.732 15.842 107.204V107.372C15.842 107.844 15.722 108.3 15.482 108.74C15.242 109.172 14.886 109.528 14.414 109.808C13.95 110.08 13.382 110.216 12.71 110.216Z" fill="#434343"/>
<path d="M4.464 158.216C3.808 158.216 3.248 158.104 2.784 157.88C2.328 157.648 1.956 157.336 1.668 156.944C1.388 156.552 1.184 156.1 1.056 155.588C0.928 155.068 0.864 154.52 0.864 153.944V153.296C0.864 152.488 0.988 151.76 1.236 151.112C1.492 150.464 1.884 149.952 2.412 149.576C2.948 149.192 3.632 149 4.464 149C5.296 149 5.976 149.192 6.504 149.576C7.032 149.952 7.42 150.464 7.668 151.112C7.924 151.76 8.052 152.488 8.052 153.296V153.944C8.052 154.52 7.988 155.068 7.86 155.588C7.732 156.1 7.524 156.552 7.236 156.944C6.956 157.336 6.588 157.648 6.132 157.88C5.676 158.104 5.12 158.216 4.464 158.216ZM4.464 157.16C5.296 157.16 5.904 156.88 6.288 156.32C6.68 155.752 6.876 154.856 6.876 153.632C6.876 152.352 6.676 151.436 6.276 150.884C5.884 150.332 5.28 150.056 4.464 150.056C3.64 150.056 3.028 150.332 2.628 150.884C2.236 151.436 2.04 152.344 2.04 153.608C2.04 154.84 2.236 155.74 2.628 156.308C3.02 156.876 3.632 157.16 4.464 157.16ZM13.382 158.216C12.726 158.216 12.166 158.104 11.702 157.88C11.246 157.648 10.874 157.336 10.586 156.944C10.306 156.552 10.102 156.1 9.97397 155.588C9.84597 155.068 9.78197 154.52 9.78197 153.944V153.296C9.78197 152.488 9.90597 151.76 10.154 151.112C10.41 150.464 10.802 149.952 11.33 149.576C11.866 149.192 12.55 149 13.382 149C14.214 149 14.894 149.192 15.422 149.576C15.95 149.952 16.338 150.464 16.586 151.112C16.842 151.76 16.97 152.488 16.97 153.296V153.944C16.97 154.52 16.906 155.068 16.778 155.588C16.65 156.1 16.442 156.552 16.154 156.944C15.874 157.336 15.506 157.648 15.05 157.88C14.594 158.104 14.038 158.216 13.382 158.216ZM13.382 157.16C14.214 157.16 14.822 156.88 15.206 156.32C15.598 155.752 15.794 154.856 15.794 153.632C15.794 152.352 15.594 151.436 15.194 150.884C14.802 150.332 14.198 150.056 13.382 150.056C12.558 150.056 11.946 150.332 11.546 150.884C11.154 151.436 10.958 152.344 10.958 153.608C10.958 154.84 11.154 155.74 11.546 156.308C11.938 156.876 12.55 157.16 13.382 157.16Z" fill="#434343"/>
</svg>
