<svg width="16" height="16" viewBox="0 0 16 16" fill="none" xmlns="http://www.w3.org/2000/svg">
<g clip-path="url(#clip0_913_1102)">
<path d="M9.23077 4.92308C9.23077 4.35184 9.45769 3.804 9.86162 3.40008C10.2655 2.99615 10.8134 2.76923 11.3846 2.76923C11.9559 2.76923 12.5037 2.99615 12.9076 3.40008C13.3115 3.804 13.5385 4.35184 13.5385 4.92308C13.5385 5.49431 13.3115 6.04215 12.9076 6.44608C12.5037 6.85 11.9559 7.07692 11.3846 7.07692C10.8134 7.07692 10.2655 6.85 9.86162 6.44608C9.45769 6.04215 9.23077 5.49431 9.23077 4.92308ZM11.3846 4C11.2634 4 11.1434 4.02388 11.0314 4.07027C10.9194 4.11665 10.8176 4.18465 10.7319 4.27036C10.6462 4.35608 10.5782 4.45784 10.5318 4.56983C10.4854 4.68182 10.4615 4.80186 10.4615 4.92308C10.4615 5.0443 10.4854 5.16433 10.5318 5.27632C10.5782 5.38832 10.6462 5.49008 10.7319 5.57579C10.8176 5.66151 10.9194 5.7295 11.0314 5.77589C11.1434 5.82228 11.2634 5.84615 11.3846 5.84615C11.6294 5.84615 11.8642 5.7489 12.0373 5.57579C12.2104 5.40268 12.3077 5.16789 12.3077 4.92308C12.3077 4.67826 12.2104 4.44347 12.0373 4.27036C11.8642 4.09725 11.6294 4 11.3846 4ZM0 2.76923C0 2.03479 0.291757 1.33042 0.811089 0.811089C1.33042 0.291757 2.03479 0 2.76923 0H13.2308C13.9652 0 14.6696 0.291757 15.1889 0.811089C15.7082 1.33042 16 2.03479 16 2.76923V13.2308C16 13.9652 15.7082 14.6696 15.1889 15.1889C14.6696 15.7082 13.9652 16 13.2308 16H2.76923C2.03479 16 1.33042 15.7082 0.811089 15.1889C0.291757 14.6696 0 13.9652 0 13.2308V2.76923ZM2.76923 1.23077C2.36121 1.23077 1.96989 1.39286 1.68137 1.68137C1.39286 1.96989 1.23077 2.36121 1.23077 2.76923V13.2308C1.23077 13.4092 1.26154 13.5797 1.31692 13.7385L6.912 8.14277C7.05487 7.99987 7.22448 7.88651 7.41116 7.80917C7.59784 7.73183 7.79793 7.69202 8 7.69202C8.20207 7.69202 8.40216 7.73183 8.58884 7.80917C8.77552 7.88651 8.94514 7.99987 9.088 8.14277L14.6837 13.7385C14.7391 13.5797 14.7692 13.4086 14.7692 13.2308V2.76923C14.7692 2.36121 14.6071 1.96989 14.3186 1.68137C14.0301 1.39286 13.6388 1.23077 13.2308 1.23077H2.76923ZM13.8462 14.6412L8.21785 9.01292C8.16015 8.95524 8.0819 8.92284 8.00031 8.92284C7.91872 8.92284 7.84047 8.95524 7.78277 9.01292L2.15385 14.6412C2.34215 14.7237 2.55015 14.7692 2.76862 14.7692H13.2302C13.4419 14.7694 13.652 14.7258 13.8462 14.6412Z" fill="#123459"/>
</g>
<defs>
<clipPath id="clip0_913_1102">
<rect width="16" height="16" fill="white"/>
</clipPath>
</defs>
</svg>
