<svg width="44" height="44" viewBox="0 0 44 44" fill="none" xmlns="http://www.w3.org/2000/svg">
<circle cx="22" cy="22" r="21" stroke="#F1EFEC" stroke-width="2"/>
<path d="M26.4883 9.55182L32.4883 15.5518V30.0518H16.4883V9.55182L26.4883 9.55182ZM26.8008 8H17.3602C16.0621 8 15 9.06207 15 10.3602V29.2415C15 30.5396 16.0621 31.6016 17.3602 31.6016H31.5211C32.8192 31.6016 33.8813 30.5396 33.8813 29.2415V15.0805L26.8008 8Z" fill="#F1EFEC"/>
<path d="M22.4883 13.5508H12.4883V34.0508H28.4883V19.5508L22.4883 13.5508Z" fill="#123459"/>
<path d="M22.4883 13.5518L28.4883 19.5518V34.0518H12.4883V13.5518L22.4883 13.5518ZM22.8008 12H13.3602C12.0621 12 11 13.0621 11 14.3602V33.2415C11 34.5396 12.0621 35.6016 13.3602 35.6016H27.5211C28.8192 35.6016 29.8813 34.5396 29.8813 33.2415V19.0805L22.8008 12Z" fill="#F1EFEC"/>
<path d="M15.1055 16.832H22.2972M15.1055 18.8868H23.8382M15.1055 22.9963H25.893M15.1055 27.1059H25.893M15.1055 31.2154H25.893M15.1055 20.9416H25.893M15.1055 25.0511H25.893M15.1055 29.1606H25.893" stroke="#F1EFEC" stroke-linecap="round"/>
</svg>
