<svg width="44" height="44" viewBox="0 0 44 44" fill="none" xmlns="http://www.w3.org/2000/svg">
<circle cx="22" cy="22" r="21" stroke="#F1EFEC" stroke-width="2"/>
<path d="M32.2212 23.1571H18.1528V20.8413H32.2212L30.4264 19.0465L32.0475 17.3676L36.6791 21.9992L32.0475 26.6308L30.4264 24.9518L32.2212 23.1571ZM26.258 18.5255V13.8939H14.6791V30.1044H26.258V25.4729H28.5738V30.1044C28.5738 30.7413 28.3471 31.2865 27.8935 31.74C27.44 32.1935 26.8949 32.4202 26.258 32.4202H14.6791C14.0422 32.4202 13.4971 32.1935 13.0435 31.74C12.59 31.2865 12.3633 30.7413 12.3633 30.1044V13.8939C12.3633 13.2571 12.59 12.7119 13.0435 12.2584C13.4971 11.8049 14.0422 11.5781 14.6791 11.5781H26.258C26.8949 11.5781 27.44 11.8049 27.8935 12.2584C28.3471 12.7119 28.5738 13.2571 28.5738 13.8939V18.5255H26.258Z" fill="#F1EFEC"/>
</svg>
