<svg width="40" height="40" viewBox="0 0 40 40" fill="none" xmlns="http://www.w3.org/2000/svg">
<rect y="40" width="40" height="40" rx="19.5751" transform="rotate(-90 0 40)" fill="#123459"/>
<path d="M23 14L26 17M14 29L29 14L26 11L11 26L14 29ZM17 11C17 11.5304 17.2107 12.0391 17.5858 12.4142C17.9609 12.7893 18.4696 13 19 13C18.4696 13 17.9609 13.2107 17.5858 13.5858C17.2107 13.9609 17 14.4696 17 15C17 14.4696 16.7893 13.9609 16.4142 13.5858C16.0391 13.2107 15.5304 13 15 13C15.5304 13 16.0391 12.7893 16.4142 12.4142C16.7893 12.0391 17 11.5304 17 11ZM27 21C27 21.5304 27.2107 22.0391 27.5858 22.4142C27.9609 22.7893 28.4696 23 29 23C28.4696 23 27.9609 23.2107 27.5858 23.5858C27.2107 23.9609 27 24.4696 27 25C27 24.4696 26.7893 23.9609 26.4142 23.5858C26.0391 23.2107 25.5304 23 25 23C25.5304 23 26.0391 22.7893 26.4142 22.4142C26.7893 22.0391 27 21.5304 27 21Z" stroke="#DCEDFF" stroke-width="2" stroke-linecap="round" stroke-linejoin="round"/>
</svg>
