<svg width="487" height="45" viewBox="0 0 487 45" fill="none" xmlns="http://www.w3.org/2000/svg">
<path d="M38.8741 13.1328C38.1199 12.7386 37.1238 12.2925 35.886 11.7946C34.6483 11.2967 33.2461 10.8299 31.6795 10.3942C30.1129 9.93776 28.411 9.56432 26.5737 9.27386C24.7363 8.96266 22.8506 8.80705 20.9166 8.80705C19.3694 8.80705 18.0446 8.85892 16.9422 8.96266C15.8591 9.06639 14.9404 9.20124 14.1862 9.36722C13.4512 9.5332 12.8613 9.73029 12.4165 9.95851C11.991 10.166 11.6622 10.3838 11.4302 10.612C11.1981 10.8402 11.0433 11.0685 10.966 11.2967C10.908 11.5249 10.879 11.7324 10.879 11.9191C10.879 12.5415 11.1691 13.0913 11.7493 13.5685C12.3295 14.0249 13.1224 14.4398 14.1281 14.8133C15.1338 15.166 16.3039 15.5083 17.6384 15.8402C18.9729 16.1515 20.3847 16.4834 21.8739 16.8361C23.3825 17.168 24.9297 17.5415 26.5156 17.9564C28.1209 18.3506 29.6681 18.8174 31.1573 19.3568C32.6659 19.8963 34.0874 20.529 35.4219 21.2552C36.7564 21.9606 37.9264 22.7905 38.9321 23.7448C39.9378 24.6992 40.7308 25.7988 41.311 27.0436C41.8912 28.2884 42.1813 29.7095 42.1813 31.3071C42.1813 33.361 41.8429 35.1245 41.166 36.5975C40.489 38.0705 39.5801 39.3154 38.439 40.332C37.3172 41.3485 36.0118 42.168 34.5225 42.7905C33.0333 43.3921 31.4668 43.8589 29.8228 44.1909C28.1982 44.5228 26.5446 44.7407 24.862 44.8444C23.1988 44.9481 21.6129 45 20.1043 45C16.1589 45 12.5035 44.6473 9.13832 43.9419C5.79244 43.2573 2.83336 42.3963 0.261095 41.3589V31.1515C2.91072 32.7282 5.92782 33.9627 9.31238 34.8548C12.7163 35.7469 16.3523 36.1929 20.2203 36.1929C22.5025 36.1929 24.3592 36.0685 25.7904 35.8195C27.2409 35.5498 28.3723 35.2178 29.1846 34.8237C29.9969 34.4087 30.5481 33.9627 30.8382 33.4855C31.1283 33.0083 31.2734 32.5519 31.2734 32.1162C31.2734 31.4315 30.9833 30.8402 30.403 30.3423C29.8228 29.8237 29.0299 29.3776 28.0242 29.0041C27.0185 28.61 25.8484 28.2573 24.5139 27.9461C23.1794 27.6141 21.7579 27.2925 20.2494 26.9813C18.7602 26.6494 17.2226 26.2967 15.6367 25.9232C14.0508 25.5498 12.5035 25.1141 10.995 24.6162C9.50579 24.0975 8.09394 23.5062 6.75946 22.8423C5.42497 22.1577 4.25488 21.3589 3.24918 20.4461C2.24348 19.5124 1.45053 18.444 0.870316 17.2407C0.290105 16.0166 0 14.6058 0 13.0083C0 11.1203 0.309446 9.4917 0.928337 8.12241C1.54723 6.75311 2.37886 5.59129 3.42324 4.63693C4.48696 3.66183 5.70541 2.87344 7.07857 2.27178C8.47108 1.67012 9.93128 1.20332 11.4592 0.871369C12.9871 0.539419 14.5343 0.311203 16.1009 0.186722C17.6674 0.0622407 19.1566 0 20.5685 0C22.1157 0 23.7016 0.0829875 25.3262 0.248963C26.9701 0.414938 28.5851 0.653527 30.171 0.96473C31.7569 1.25519 33.2848 1.59751 34.7546 1.9917C36.2438 2.38589 37.617 2.80083 38.8741 3.23651V13.1328Z" fill="#113C64"/>
<path d="M96.315 40.9232C94.9225 41.5456 93.5203 42.1058 92.1085 42.6037C90.6966 43.1017 89.2364 43.527 87.7279 43.8797C86.2193 44.2531 84.6238 44.5332 82.9411 44.7199C81.2779 44.9066 79.4889 45 77.5742 45C73.5127 45 69.7704 44.5332 66.3471 43.5996C62.9432 42.666 60.0035 41.2656 57.5279 39.3983C55.0717 37.5104 53.157 35.166 51.7838 32.3651C50.4107 29.5436 49.7241 26.2552 49.7241 22.5C49.7241 18.7448 50.4107 15.4668 51.7838 12.666C53.157 9.8444 55.0717 7.5 57.5279 5.63278C60.0035 3.74481 62.9432 2.33402 66.3471 1.40041C69.7704 0.466805 73.5127 0 77.5742 0C79.4889 0 81.2779 0.093361 82.9411 0.280083C84.6238 0.466805 86.2193 0.746888 87.7279 1.12033C89.2364 1.47303 90.6966 1.89834 92.1085 2.39627C93.5203 2.89419 94.9225 3.45436 96.315 4.07676V14.471C95.2126 13.8278 94.0522 13.195 92.8337 12.5726C91.6153 11.9295 90.2711 11.3589 88.8013 10.861C87.3314 10.3423 85.7165 9.92739 83.9565 9.61618C82.1965 9.28423 80.2141 9.11826 78.0094 9.11826C74.6248 9.11826 71.8108 9.4917 69.5673 10.2386C67.3431 10.9855 65.5638 11.9813 64.2293 13.2261C62.8949 14.471 61.9569 15.9025 61.4153 17.5207C60.8738 19.1183 60.603 20.778 60.603 22.5C60.603 23.6411 60.7191 24.7718 60.9512 25.8921C61.1832 26.9917 61.57 28.0394 62.1116 29.0353C62.6531 30.0104 63.359 30.9129 64.2293 31.7427C65.0997 32.5726 66.1827 33.2884 67.4785 33.89C68.7743 34.4917 70.2829 34.9689 72.0042 35.3216C73.7448 35.6535 75.7465 35.8195 78.0094 35.8195C80.2141 35.8195 82.1965 35.6743 83.9565 35.3838C85.7165 35.0726 87.3314 34.668 88.8013 34.1701C90.2711 33.6722 91.6153 33.112 92.8337 32.4896C94.0522 31.8465 95.2126 31.1929 96.315 30.529V40.9232Z" fill="#113C64"/>
<path d="M106.353 43.8485V1.08921H117.116V43.8485H106.353Z" fill="#113C64"/>
<path d="M156.367 43.8485H143.834L123.672 1.08921H135.682L150.188 33.2676L164.664 1.08921H176.674L156.367 43.8485Z" fill="#113C64"/>
<path d="M183.231 43.8485V1.08921H193.993V43.8485H183.231Z" fill="#113C64"/>
<path d="M243.224 13.1328C242.47 12.7386 241.474 12.2925 240.236 11.7946C238.999 11.2967 237.596 10.8299 236.03 10.3942C234.463 9.93776 232.761 9.56432 230.924 9.27386C229.087 8.96266 227.201 8.80705 225.267 8.80705C223.72 8.80705 222.395 8.85892 221.292 8.96266C220.209 9.06639 219.291 9.20124 218.536 9.36722C217.801 9.5332 217.212 9.73029 216.767 9.95851C216.341 10.166 216.013 10.3838 215.78 10.612C215.548 10.8402 215.394 11.0685 215.316 11.2967C215.258 11.5249 215.229 11.7324 215.229 11.9191C215.229 12.5415 215.519 13.0913 216.1 13.5685C216.68 14.0249 217.473 14.4398 218.478 14.8133C219.484 15.166 220.654 15.5083 221.989 15.8402C223.323 16.1515 224.735 16.4834 226.224 16.8361C227.733 17.168 229.28 17.5415 230.866 17.9564C232.471 18.3506 234.018 18.8174 235.508 19.3568C237.016 19.8963 238.438 20.529 239.772 21.2552C241.107 21.9606 242.277 22.7905 243.282 23.7448C244.288 24.6992 245.081 25.7988 245.661 27.0436C246.242 28.2884 246.532 29.7095 246.532 31.3071C246.532 33.361 246.193 35.1245 245.516 36.5975C244.839 38.0705 243.93 39.3154 242.789 40.332C241.667 41.3485 240.362 42.168 238.873 42.7905C237.384 43.3921 235.817 43.8589 234.173 44.1909C232.549 44.5228 230.895 44.7407 229.212 44.8444C227.549 44.9481 225.963 45 224.455 45C220.509 45 216.854 44.6473 213.489 43.9419C210.143 43.2573 207.184 42.3963 204.611 41.3589V31.1515C207.261 32.7282 210.278 33.9627 213.663 34.8548C217.067 35.7469 220.703 36.1929 224.571 36.1929C226.853 36.1929 228.709 36.0685 230.141 35.8195C231.591 35.5498 232.723 35.2178 233.535 34.8237C234.347 34.4087 234.898 33.9627 235.188 33.4855C235.479 33.0083 235.624 32.5519 235.624 32.1162C235.624 31.4315 235.334 30.8402 234.753 30.3423C234.173 29.8237 233.38 29.3776 232.374 29.0041C231.369 28.61 230.199 28.2573 228.864 27.9461C227.53 27.6141 226.108 27.2925 224.6 26.9813C223.11 26.6494 221.573 26.2967 219.987 25.9232C218.401 25.5498 216.854 25.1141 215.345 24.6162C213.856 24.0975 212.444 23.5062 211.11 22.8423C209.775 22.1577 208.605 21.3589 207.599 20.4461C206.594 19.5124 205.801 18.444 205.221 17.2407C204.64 16.0166 204.35 14.6058 204.35 13.0083C204.35 11.1203 204.66 9.4917 205.279 8.12241C205.897 6.75311 206.729 5.59129 207.774 4.63693C208.837 3.66183 210.056 2.87344 211.429 2.27178C212.821 1.67012 214.282 1.20332 215.809 0.871369C217.337 0.539419 218.885 0.311203 220.451 0.186722C222.018 0.0622407 223.507 0 224.919 0C226.466 0 228.052 0.0829875 229.676 0.248963C231.32 0.414938 232.935 0.653527 234.521 0.96473C236.107 1.25519 237.635 1.59751 239.105 1.9917C240.594 2.38589 241.967 2.80083 243.224 3.23651V13.1328Z" fill="#113C64"/>
<path d="M256.743 43.8485V1.08921H267.506V43.8485H256.743Z" fill="#113C64"/>
<path d="M331.591 22.5C331.591 26.1722 330.962 29.4191 329.705 32.2407C328.448 35.0415 326.649 37.3859 324.309 39.2739C321.969 41.1618 319.126 42.5934 315.78 43.5685C312.453 44.5228 308.711 45 304.553 45C300.395 45 296.633 44.5228 293.268 43.5685C289.922 42.5934 287.069 41.1618 284.709 39.2739C282.35 37.3859 280.532 35.0415 279.255 32.2407C277.979 29.4191 277.341 26.1722 277.341 22.5C277.341 18.8278 277.979 15.5913 279.255 12.7905C280.532 9.96888 282.35 7.61411 284.709 5.72614C287.069 3.83817 289.922 2.41701 293.268 1.46266C296.633 0.487552 300.395 0 304.553 0C308.711 0 312.453 0.487552 315.78 1.46266C319.126 2.41701 321.969 3.83817 324.309 5.72614C326.649 7.61411 328.448 9.96888 329.705 12.7905C330.962 15.5913 331.591 18.8278 331.591 22.5ZM320.712 22.5C320.712 20.9025 320.47 19.3154 319.986 17.7386C319.522 16.1411 318.681 14.7095 317.462 13.444C316.263 12.1784 314.619 11.1515 312.531 10.3631C310.442 9.57469 307.783 9.1805 304.553 9.1805C302.387 9.1805 300.482 9.36722 298.838 9.74066C297.194 10.0934 295.772 10.5913 294.573 11.2344C293.374 11.8776 292.368 12.6349 291.556 13.5062C290.744 14.3568 290.096 15.2801 289.612 16.2759C289.129 17.251 288.781 18.278 288.568 19.3568C288.374 20.4149 288.278 21.4627 288.278 22.5C288.278 23.5581 288.374 24.6266 288.568 25.7054C288.781 26.7842 289.129 27.8216 289.612 28.8174C290.096 29.7925 290.744 30.7054 291.556 31.556C292.368 32.4066 293.374 33.1535 294.573 33.7967C295.772 34.4191 297.194 34.917 298.838 35.2905C300.482 35.6432 302.387 35.8195 304.553 35.8195C307.783 35.8195 310.442 35.4253 312.531 34.6369C314.619 33.8485 316.263 32.8216 317.462 31.556C318.681 30.2905 319.522 28.8693 319.986 27.2925C320.47 25.695 320.712 24.0975 320.712 22.5Z" fill="#113C64"/>
<path d="M379.371 43.8485V19.8859C379.371 18.2884 379.245 16.8465 378.994 15.5602C378.742 14.2531 378.268 13.1432 377.572 12.2303C376.895 11.2967 375.938 10.5809 374.7 10.083C373.482 9.56432 371.905 9.30498 369.971 9.30498C368.502 9.30498 366.954 9.52282 365.33 9.95851C363.725 10.3734 362.129 10.9336 360.543 11.639C358.957 12.3444 357.439 13.1639 355.988 14.0975C354.557 15.0311 353.281 16.0062 352.159 17.0228V43.8485H341.396V1.08921H352.159V6.93983C353.513 6.10996 354.954 5.29046 356.482 4.48133C358.009 3.65145 359.634 2.90456 361.355 2.24066C363.077 1.57676 364.904 1.03734 366.838 0.622407C368.772 0.207469 370.813 0 372.96 0C375.648 0 378.046 0.352697 380.154 1.05809C382.282 1.74274 384.08 2.72822 385.55 4.01452C387.02 5.28008 388.142 6.82573 388.915 8.65145C389.708 10.4564 390.105 12.4793 390.105 14.7199V43.8485H379.371Z" fill="#113C64"/>
<path d="M399.156 43.8485V32.6452H410.151V43.8485H399.156Z" fill="#113C64"/>
<path d="M453.174 43.8485V39.6473C451.801 40.4564 450.321 41.1722 448.735 41.7946C447.169 42.417 445.534 42.9461 443.832 43.3817C442.13 43.8174 440.37 44.139 438.552 44.3465C436.754 44.5747 434.936 44.6888 433.098 44.6888C430.952 44.6888 428.873 44.471 426.861 44.0353C424.869 43.5996 423.099 42.8942 421.552 41.9191C420.005 40.944 418.758 39.668 417.81 38.0913C416.882 36.5145 416.417 34.5851 416.417 32.3029C416.417 29.4191 417.152 27.0228 418.622 25.1141C420.092 23.1846 422.335 21.6079 425.353 20.3838C428.37 19.1598 432.18 18.2158 436.783 17.5519C441.405 16.888 446.869 16.3693 453.174 15.9959V15.0934C453.174 14.388 453 13.6929 452.652 13.0083C452.303 12.3029 451.665 11.6909 450.737 11.1722C449.828 10.6328 448.571 10.1971 446.965 9.86515C445.38 9.53319 443.349 9.36722 440.873 9.36722C438.92 9.36722 436.986 9.48133 435.071 9.70954C433.176 9.91701 431.338 10.2075 429.559 10.5809C427.799 10.9544 426.126 11.39 424.54 11.888C422.954 12.3859 421.514 12.9046 420.218 13.444V3.17427C421.572 2.80083 423.09 2.43776 424.772 2.08506C426.455 1.73237 428.205 1.43154 430.023 1.18257C431.841 0.912863 433.679 0.705394 435.535 0.560166C437.392 0.394191 439.171 0.311203 440.873 0.311203C444.219 0.311203 447.304 0.612033 450.128 1.21369C452.951 1.79461 455.379 2.70747 457.409 3.95228C459.459 5.1971 461.055 6.77386 462.196 8.68257C463.356 10.5913 463.937 12.8631 463.937 15.4979V43.8485H453.174ZM453.174 24.3361C449.035 24.5021 445.515 24.7407 442.614 25.0519C439.732 25.3631 437.334 25.7261 435.419 26.1411C433.505 26.556 431.996 27.0021 430.894 27.4793C429.811 27.9564 428.998 28.444 428.457 28.9419C427.915 29.4398 427.577 29.9378 427.441 30.4357C427.325 30.9336 427.267 31.39 427.267 31.805C427.267 32.3029 427.393 32.7905 427.644 33.2676C427.896 33.7241 428.331 34.1286 428.95 34.4813C429.588 34.834 430.429 35.1141 431.474 35.3216C432.518 35.529 433.833 35.6328 435.419 35.6328C437.179 35.6328 438.901 35.4876 440.583 35.1971C442.266 34.9066 443.861 34.5124 445.37 34.0145C446.878 33.4958 448.29 32.8942 449.605 32.2095C450.94 31.5041 452.129 30.7573 453.174 29.9689V24.3361Z" fill="#113C64"/>
<path d="M476.237 43.8485V1.08921H487V43.8485H476.237Z" fill="#113C64"/>
<path d="M311.544 13.973C311.544 14.9482 311.372 15.8105 311.028 16.5598C310.684 17.3036 310.191 17.9261 309.551 18.4275C308.91 18.9289 308.131 19.309 307.215 19.568C306.304 19.8214 305.28 19.9481 304.141 19.9481C303.003 19.9481 301.973 19.8214 301.052 19.568C300.135 19.309 299.354 18.9289 298.708 18.4275C298.062 17.9261 297.565 17.3036 297.215 16.5598C296.866 15.8105 296.691 14.9482 296.691 13.973C296.691 12.9978 296.866 12.1384 297.215 11.3946C297.565 10.6453 298.062 10.0199 298.708 9.51856C299.354 9.01719 300.135 8.63979 301.052 8.38635C301.973 8.1274 303.003 7.99793 304.141 7.99793C305.28 7.99793 306.304 8.1274 307.215 8.38635C308.131 8.63979 308.91 9.01719 309.551 9.51856C310.191 10.0199 310.684 10.6453 311.028 11.3946C311.372 12.1384 311.544 12.9978 311.544 13.973ZM308.566 13.973C308.566 13.5488 308.499 13.1273 308.367 12.7086C308.24 12.2844 308.01 11.9042 307.676 11.5681C307.348 11.232 306.898 10.9593 306.326 10.7499C305.754 10.5406 305.026 10.4359 304.141 10.4359C303.548 10.4359 303.027 10.4855 302.577 10.5847C302.126 10.6783 301.737 10.8105 301.409 10.9813C301.081 11.1521 300.805 11.3532 300.583 11.5846C300.36 11.8105 300.183 12.0557 300.051 12.3202C299.918 12.5791 299.823 12.8518 299.765 13.1383C299.712 13.4193 299.685 13.6976 299.685 13.973C299.685 14.254 299.712 14.5378 299.765 14.8243C299.823 15.1108 299.918 15.3862 300.051 15.6507C300.183 15.9096 300.36 16.1521 300.583 16.3779C300.805 16.6038 301.081 16.8022 301.409 16.973C301.737 17.1383 302.126 17.2705 302.577 17.3697C303.027 17.4633 303.548 17.5102 304.141 17.5102C305.026 17.5102 305.754 17.4055 306.326 17.1961C306.898 16.9868 307.348 16.714 307.676 16.3779C308.01 16.0419 308.24 15.6645 308.367 15.2457C308.499 14.8215 308.566 14.3973 308.566 13.973Z" fill="#113C64"/>
<path d="M322.684 23.9315C322.684 25.2318 322.469 26.3814 322.039 27.3805C321.609 28.3722 320.993 29.2023 320.192 29.8708C319.391 30.5393 318.418 31.0462 317.273 31.3915C316.135 31.7294 314.854 31.8983 313.431 31.8983C312.008 31.8983 310.72 31.7294 309.568 31.3915C308.423 31.0462 307.447 30.5393 306.639 29.8708C305.832 29.2023 305.21 28.3722 304.773 27.3805C304.336 26.3814 304.118 25.2318 304.118 23.9315C304.118 22.6313 304.336 21.4853 304.773 20.4936C305.21 19.4945 305.832 18.6607 306.639 17.9922C307.447 17.3238 308.423 16.8205 309.568 16.4826C310.72 16.1374 312.008 15.9647 313.431 15.9647C314.854 15.9647 316.135 16.1374 317.273 16.4826C318.418 16.8205 319.391 17.3238 320.192 17.9922C320.993 18.6607 321.609 19.4945 322.039 20.4936C322.469 21.4853 322.684 22.6313 322.684 23.9315ZM318.961 23.9315C318.961 23.3659 318.878 22.8039 318.713 22.2456C318.554 21.68 318.266 21.1731 317.849 20.725C317.439 20.2769 316.876 19.9132 316.161 19.6341C315.446 19.3549 314.536 19.2154 313.431 19.2154C312.689 19.2154 312.037 19.2815 311.475 19.4137C310.912 19.5386 310.426 19.7149 310.015 19.9426C309.605 20.1704 309.261 20.4385 308.983 20.747C308.705 21.0482 308.483 21.3751 308.317 21.7277C308.152 22.073 308.033 22.4366 307.96 22.8186C307.894 23.1933 307.861 23.5642 307.861 23.9315C307.861 24.3062 307.894 24.6845 307.96 25.0665C308.033 25.4485 308.152 25.8158 308.317 26.1684C308.483 26.5137 308.705 26.8369 308.983 27.1381C309.261 27.4393 309.605 27.7037 310.015 27.9315C310.426 28.1518 310.912 28.3282 311.475 28.4604C312.037 28.5853 312.689 28.6477 313.431 28.6477C314.536 28.6477 315.446 28.5081 316.161 28.229C316.876 27.9498 317.439 27.5862 317.849 27.1381C318.266 26.69 318.554 26.1868 318.713 25.6285C318.878 25.0628 318.961 24.4972 318.961 23.9315Z" fill="#113C64"/>
<path d="M304.118 31.8983C304.118 32.5485 303.988 33.1233 303.73 33.6228C303.472 34.1187 303.103 34.5337 302.622 34.868C302.142 35.2022 301.558 35.4557 300.871 35.6283C300.188 35.7973 299.419 35.8817 298.565 35.8817C297.712 35.8817 296.939 35.7973 296.248 35.6283C295.561 35.4557 294.975 35.2022 294.491 34.868C294.006 34.5337 293.633 34.1187 293.371 33.6228C293.109 33.1233 292.977 32.5485 292.977 31.8983C292.977 31.2482 293.109 30.6752 293.371 30.1794C293.633 29.6798 294.006 29.2629 294.491 28.9287C294.975 28.5944 295.561 28.3428 296.248 28.1739C296.939 28.0013 297.712 27.9149 298.565 27.9149C299.419 27.9149 300.188 28.0013 300.871 28.1739C301.558 28.3428 302.142 28.5944 302.622 28.9287C303.103 29.2629 303.472 29.6798 303.73 30.1794C303.988 30.6752 304.118 31.2482 304.118 31.8983ZM301.884 31.8983C301.884 31.6155 301.834 31.3345 301.735 31.0554C301.639 30.7726 301.467 30.5191 301.216 30.2951C300.97 30.071 300.633 29.8892 300.204 29.7496C299.775 29.61 299.229 29.5403 298.565 29.5403C298.121 29.5403 297.729 29.5733 297.392 29.6394C297.054 29.7019 296.762 29.79 296.516 29.9039C296.27 30.0177 296.063 30.1518 295.897 30.3061C295.73 30.4567 295.597 30.6201 295.497 30.7964C295.398 30.9691 295.327 31.1509 295.283 31.3419C295.243 31.5292 295.223 31.7147 295.223 31.8983C295.223 32.0857 295.243 32.2748 295.283 32.4658C295.327 32.6568 295.398 32.8405 295.497 33.0168C295.597 33.1894 295.73 33.351 295.897 33.5016C296.063 33.6522 296.27 33.7844 296.516 33.8983C296.762 34.0085 297.054 34.0967 297.392 34.1628C297.729 34.2252 298.121 34.2564 298.565 34.2564C299.229 34.2564 299.775 34.1866 300.204 34.0471C300.633 33.9075 300.97 33.7257 301.216 33.5016C301.467 33.2776 301.639 33.026 301.735 32.7468C301.834 32.464 301.884 32.1812 301.884 31.8983Z" fill="#113C64"/>
</svg>
