<svg width="278" height="24" viewBox="0 0 278 24" fill="none" xmlns="http://www.w3.org/2000/svg">
<path d="M22.136 7.1936C21.7065 6.99034 21.1393 6.76034 20.4345 6.50359C19.7297 6.24684 18.9312 6.00614 18.0392 5.78149C17.1471 5.54614 16.178 5.35357 15.1318 5.2038C14.0855 5.04334 13.0118 4.9631 11.9105 4.9631C11.0294 4.9631 10.2751 4.98985 9.64732 5.04334C9.0306 5.09683 8.50748 5.16636 8.07798 5.25195C7.65949 5.33753 7.32359 5.43916 7.0703 5.55683C6.82801 5.66381 6.64079 5.77614 6.50864 5.89381C6.37648 6.01149 6.28838 6.12917 6.24433 6.24684C6.21129 6.36452 6.19477 6.4715 6.19477 6.56778C6.19477 6.88871 6.35996 7.17221 6.69035 7.41826C7.02074 7.65361 7.47227 7.86756 8.04494 8.06012C8.61761 8.24199 9.28389 8.4185 10.0438 8.58967C10.8037 8.75014 11.6076 8.9213 12.4556 9.10316C13.3146 9.27433 14.1957 9.46689 15.0987 9.68085C16.0128 9.8841 16.8938 10.1248 17.7418 10.4029C18.6008 10.6811 19.4103 11.0074 20.1702 11.3818C20.9301 11.7455 21.5963 12.1734 22.169 12.6655C22.7417 13.1576 23.1932 13.7246 23.5236 14.3665C23.854 15.0084 24.0192 15.7412 24.0192 16.5649C24.0192 17.624 23.8265 18.5333 23.441 19.2928C23.0556 20.0524 22.5379 20.6943 21.8882 21.2185C21.2494 21.7426 20.5061 22.1652 19.6581 22.4861C18.8101 22.7964 17.918 23.0371 16.9819 23.2083C16.0568 23.3794 15.1152 23.4917 14.1571 23.5452C13.21 23.5987 12.3069 23.6255 11.4479 23.6255C9.2013 23.6255 7.11985 23.4436 5.20361 23.0799C3.29837 22.7268 1.61339 22.2829 0.148674 21.748V16.4847C1.65744 17.2977 3.37546 17.9342 5.30272 18.3942C7.241 18.8542 9.31143 19.0842 11.514 19.0842C12.8135 19.0842 13.8708 19.0201 14.6857 18.8917C15.5117 18.7526 16.156 18.5814 16.6185 18.3782C17.081 18.1642 17.3949 17.9342 17.5601 17.6882C17.7253 17.4421 17.8079 17.2068 17.8079 16.9821C17.8079 16.6291 17.6427 16.3242 17.3123 16.0675C16.9819 15.8 16.5304 15.57 15.9577 15.3774C15.3851 15.1742 14.7188 14.9923 13.9589 14.8319C13.199 14.6607 12.3895 14.4949 11.5305 14.3344C10.6825 14.1632 9.80701 13.9814 8.90395 13.7888C8.00089 13.5963 7.11985 13.3716 6.26085 13.1148C5.41285 12.8474 4.60891 12.5425 3.84902 12.2002C3.08912 11.8472 2.42284 11.4353 1.85017 10.9646C1.2775 10.4832 0.825969 9.93225 0.495582 9.31177C0.165194 8.6806 0 7.95315 0 7.12941C0 6.15591 0.176207 5.31613 0.52862 4.61007C0.881034 3.90402 1.35459 3.30494 1.94929 2.81284C2.555 2.31004 3.24881 1.90352 4.03073 1.59329C4.82366 1.28305 5.65514 1.04235 6.52516 0.871184C7.39518 0.700019 8.27621 0.582342 9.16826 0.518155C10.0603 0.453968 10.9083 0.421875 11.7122 0.421875C12.5933 0.421875 13.4963 0.464666 14.4214 0.550249C15.3575 0.635832 16.2771 0.758857 17.1802 0.919324C18.0832 1.06909 18.9532 1.24561 19.7902 1.44887C20.6382 1.65213 21.4201 1.86608 22.136 2.09074V7.1936Z" fill="#F1EFEC"/>
<path d="M54.8444 21.5233C54.0514 21.8443 53.253 22.1331 52.449 22.3899C51.6451 22.6466 50.8136 22.8659 49.9546 23.0478C49.0956 23.2403 48.187 23.3848 47.2289 23.481C46.2818 23.5773 45.2631 23.6255 44.1728 23.6255C41.8601 23.6255 39.7291 23.3848 37.7798 22.9034C35.8416 22.422 34.1676 21.6999 32.7579 20.7371C31.3593 19.7635 30.269 18.5547 29.4871 17.1105C28.7052 15.6556 28.3142 13.96 28.3142 12.0237C28.3142 10.0874 28.7052 8.39711 29.4871 6.9529C30.269 5.49799 31.3593 4.28914 32.7579 3.32634C34.1676 2.35283 35.8416 1.62538 37.7798 1.14398C39.7291 0.662576 41.8601 0.421875 44.1728 0.421875C45.2631 0.421875 46.2818 0.470015 47.2289 0.566296C48.187 0.662576 49.0956 0.806997 49.9546 0.999558C50.8136 1.18142 51.6451 1.40073 52.449 1.65747C53.253 1.91422 54.0514 2.20306 54.8444 2.524V7.88361C54.2166 7.55198 53.5558 7.22569 52.862 6.90476C52.1682 6.57313 51.4028 6.27894 50.5658 6.02219C49.7289 5.75474 48.8093 5.54079 47.8071 5.38032C46.8049 5.20915 45.6761 5.12357 44.4206 5.12357C42.4934 5.12357 40.891 5.31613 39.6135 5.70125C38.347 6.08638 37.3338 6.59987 36.5739 7.24174C35.814 7.88361 35.2799 8.62176 34.9715 9.45619C34.6632 10.2799 34.509 11.1358 34.509 12.0237C34.509 12.6121 34.5751 13.1951 34.7072 13.7728C34.8394 14.3398 35.0596 14.88 35.368 15.3935C35.6764 15.8963 36.0783 16.3616 36.5739 16.7896C37.0695 17.2175 37.6862 17.5865 38.4241 17.8968C39.162 18.207 40.021 18.4531 41.0011 18.6349C41.9923 18.8061 43.1321 18.8917 44.4206 18.8917C45.6761 18.8917 46.8049 18.8168 47.8071 18.667C48.8093 18.5066 49.7289 18.2979 50.5658 18.0412C51.4028 17.7845 52.1682 17.4956 52.862 17.1747C53.5558 16.843 54.2166 16.5061 54.8444 16.1637V21.5233Z" fill="#F1EFEC"/>
<path d="M60.5601 23.0317V0.983511H66.6888V23.0317H60.5601Z" fill="#F1EFEC"/>
<path d="M89.0395 23.0317H81.9031L70.4221 0.983511H77.2612L85.5209 17.5758L93.764 0.983511H100.603L89.0395 23.0317Z" fill="#F1EFEC"/>
<path d="M104.336 23.0317V0.983511H110.465V23.0317H104.336Z" fill="#F1EFEC"/>
<path d="M138.499 7.1936C138.069 6.99034 137.502 6.76034 136.797 6.50359C136.092 6.24684 135.294 6.00614 134.402 5.78149C133.51 5.54614 132.541 5.35357 131.494 5.2038C130.448 5.04334 129.374 4.9631 128.273 4.9631C127.392 4.9631 126.638 4.98985 126.01 5.04334C125.393 5.09683 124.87 5.16636 124.441 5.25195C124.022 5.33753 123.686 5.43916 123.433 5.55683C123.191 5.66381 123.003 5.77614 122.871 5.89381C122.739 6.01149 122.651 6.12917 122.607 6.24684C122.574 6.36452 122.557 6.4715 122.557 6.56778C122.557 6.88871 122.723 7.17221 123.053 7.41826C123.383 7.65361 123.835 7.86756 124.407 8.06012C124.98 8.24199 125.646 8.4185 126.406 8.58967C127.166 8.75014 127.97 8.9213 128.818 9.10316C129.677 9.27433 130.558 9.46689 131.461 9.68085C132.375 9.8841 133.256 10.1248 134.104 10.4029C134.963 10.6811 135.773 11.0074 136.533 11.3818C137.293 11.7455 137.959 12.1734 138.532 12.6655C139.104 13.1576 139.556 13.7246 139.886 14.3665C140.217 15.0084 140.382 15.7412 140.382 16.5649C140.382 17.624 140.189 18.5333 139.804 19.2928C139.418 20.0524 138.9 20.6943 138.251 21.2185C137.612 21.7426 136.869 22.1652 136.021 22.4861C135.173 22.7964 134.281 23.0371 133.344 23.2083C132.419 23.3794 131.478 23.4917 130.52 23.5452C129.573 23.5987 128.669 23.6255 127.81 23.6255C125.564 23.6255 123.482 23.4436 121.566 23.0799C119.661 22.7268 117.976 22.2829 116.511 21.748V16.4847C118.02 17.2977 119.738 17.9342 121.665 18.3942C123.604 18.8542 125.674 19.0842 127.877 19.0842C129.176 19.0842 130.233 19.0201 131.048 18.8917C131.874 18.7526 132.519 18.5814 132.981 18.3782C133.444 18.1642 133.757 17.9342 133.923 17.6882C134.088 17.4421 134.17 17.2068 134.17 16.9821C134.17 16.6291 134.005 16.3242 133.675 16.0675C133.344 15.8 132.893 15.57 132.32 15.3774C131.748 15.1742 131.081 14.9923 130.321 14.8319C129.562 14.6607 128.752 14.4949 127.893 14.3344C127.045 14.1632 126.17 13.9814 125.266 13.7888C124.363 13.5963 123.482 13.3716 122.623 13.1148C121.775 12.8474 120.971 12.5425 120.212 12.2002C119.452 11.8472 118.785 11.4353 118.213 10.9646C117.64 10.4832 117.189 9.93225 116.858 9.31177C116.528 8.6806 116.363 7.95315 116.363 7.12941C116.363 6.15591 116.539 5.31613 116.891 4.61007C117.244 3.90402 117.717 3.30494 118.312 2.81284C118.918 2.31004 119.611 1.90352 120.393 1.59329C121.186 1.28305 122.018 1.04235 122.888 0.871184C123.758 0.700019 124.639 0.582342 125.531 0.518155C126.423 0.453968 127.271 0.421875 128.075 0.421875C128.956 0.421875 129.859 0.464666 130.784 0.550249C131.72 0.635832 132.64 0.758857 133.543 0.919324C134.446 1.06909 135.316 1.24561 136.153 1.44887C137.001 1.65213 137.783 1.86608 138.499 2.09074V7.1936Z" fill="#F1EFEC"/>
<path d="M146.197 23.0317V0.983511H152.325V23.0317H146.197Z" fill="#F1EFEC"/>
<path d="M188.817 12.0237C188.817 13.9172 188.459 15.5914 187.743 17.0463C187.027 18.4905 186.003 19.6994 184.67 20.6729C183.338 21.6464 181.719 22.3845 179.814 22.8873C177.919 23.3794 175.788 23.6255 173.421 23.6255C171.053 23.6255 168.911 23.3794 166.994 22.8873C165.089 22.3845 163.465 21.6464 162.121 20.6729C160.778 19.6994 159.742 18.4905 159.016 17.0463C158.289 15.5914 157.925 13.9172 157.925 12.0237C157.925 10.1302 158.289 8.46129 159.016 7.01709C159.742 5.56218 160.778 4.34798 162.121 3.37448C163.465 2.40097 165.089 1.66817 166.994 1.17607C168.911 0.673274 171.053 0.421875 173.421 0.421875C175.788 0.421875 177.919 0.673274 179.814 1.17607C181.719 1.66817 183.338 2.40097 184.67 3.37448C186.003 4.34798 187.027 5.56218 187.743 7.01709C188.459 8.46129 188.817 10.1302 188.817 12.0237ZM182.622 12.0237C182.622 11.1999 182.484 10.3816 182.209 9.56852C181.945 8.74479 181.465 8.00664 180.772 7.35407C180.089 6.7015 179.153 6.17196 177.963 5.76544C176.774 5.35892 175.26 5.15566 173.421 5.15566C172.187 5.15566 171.102 5.25195 170.166 5.44451C169.23 5.62637 168.421 5.88312 167.738 6.21475C167.055 6.54638 166.482 6.93685 166.02 7.38616C165.557 7.82477 165.188 8.30083 164.913 8.81432C164.638 9.31712 164.439 9.84666 164.318 10.4029C164.208 10.9485 164.153 11.4888 164.153 12.0237C164.153 12.5693 164.208 13.1202 164.318 13.6765C164.439 14.2328 164.638 14.7677 164.913 15.2812C165.188 15.784 165.557 16.2547 166.02 16.6933C166.482 17.1319 167.055 17.517 167.738 17.8486C168.421 18.1696 169.23 18.4263 170.166 18.6189C171.102 18.8007 172.187 18.8917 173.421 18.8917C175.26 18.8917 176.774 18.6884 177.963 18.2819C179.153 17.8754 180.089 17.3458 180.772 16.6933C181.465 16.0407 181.945 15.3079 182.209 14.4949C182.484 13.6711 182.622 12.8474 182.622 12.0237Z" fill="#F1EFEC"/>
<path d="M216.024 23.0317V10.6757C216.024 9.85201 215.952 9.10851 215.809 8.44525C215.666 7.77128 215.396 7.19895 215 6.72825C214.614 6.24684 214.069 5.87777 213.364 5.62102C212.671 5.35357 211.773 5.21985 210.672 5.21985C209.835 5.21985 208.954 5.33218 208.029 5.55683C207.115 5.77079 206.206 6.05963 205.303 6.42336C204.4 6.78708 203.535 7.20965 202.709 7.69105C201.894 8.17245 201.168 8.67525 200.529 9.19944V23.0317H194.4V0.983511H200.529V4.0003C201.3 3.57239 202.12 3.14982 202.99 2.73261C203.86 2.30469 204.785 1.91957 205.765 1.57724C206.746 1.23491 207.786 0.956766 208.888 0.74281C209.989 0.528853 211.151 0.421875 212.373 0.421875C213.904 0.421875 215.27 0.603738 216.47 0.967464C217.681 1.32049 218.706 1.82864 219.543 2.4919C220.38 3.14447 221.018 3.94146 221.459 4.88287C221.91 5.81358 222.136 6.85662 222.136 8.01198V23.0317H216.024Z" fill="#F1EFEC"/>
<path d="M227.29 23.0317V17.2549H233.551V23.0317H227.29Z" fill="#F1EFEC"/>
<path d="M258.049 23.0317V20.8654C257.267 21.2826 256.425 21.6517 255.522 21.9727C254.63 22.2936 253.699 22.5664 252.73 22.791C251.761 23.0157 250.759 23.1815 249.724 23.2885C248.699 23.4062 247.664 23.465 246.618 23.465C245.395 23.465 244.212 23.3527 243.066 23.128C241.932 22.9034 240.924 22.5396 240.043 22.0368C239.162 21.534 238.452 20.8761 237.912 20.0631C237.384 19.2501 237.119 18.2552 237.119 17.0784C237.119 15.5914 237.538 14.3558 238.375 13.3716C239.212 12.3767 240.489 11.5637 242.207 10.9325C243.925 10.3013 246.095 9.81457 248.716 9.47224C251.348 9.12991 254.459 8.86246 258.049 8.6699V8.20455C258.049 7.84082 257.95 7.48244 257.752 7.12941C257.554 6.76569 257.19 6.4501 256.662 6.18266C256.144 5.90451 255.428 5.67986 254.514 5.50869C253.611 5.33753 252.455 5.25195 251.045 5.25195C249.933 5.25195 248.831 5.31078 247.741 5.42846C246.662 5.53544 245.616 5.68521 244.603 5.87777C243.6 6.07033 242.648 6.29498 241.745 6.55173C240.842 6.80848 240.021 7.07592 239.283 7.35407V2.05864C240.054 1.86608 240.919 1.67887 241.877 1.49701C242.835 1.31514 243.832 1.16003 244.867 1.03165C245.902 0.892579 246.948 0.785601 248.006 0.710716C249.063 0.625134 250.076 0.582342 251.045 0.582342C252.95 0.582342 254.707 0.737461 256.315 1.0477C257.923 1.34724 259.305 1.81794 260.461 2.45981C261.629 3.10168 262.537 3.91472 263.187 4.89892C263.848 5.88312 264.178 7.05453 264.178 8.41315V23.0317H258.049ZM258.049 12.9704C255.693 13.056 253.688 13.179 252.036 13.3395C250.395 13.5 249.03 13.6872 247.939 13.9011C246.849 14.1151 245.99 14.3451 245.362 14.5912C244.746 14.8372 244.283 15.0886 243.975 15.3453C243.666 15.6021 243.474 15.8588 243.397 16.1156C243.331 16.3723 243.298 16.6077 243.298 16.8216C243.298 17.0784 243.369 17.3298 243.512 17.5758C243.655 17.8112 243.903 18.0198 244.256 18.2017C244.619 18.3835 245.098 18.528 245.693 18.6349C246.288 18.7419 247.036 18.7954 247.939 18.7954C248.942 18.7954 249.922 18.7205 250.88 18.5707C251.838 18.421 252.747 18.2177 253.606 17.961C254.465 17.6935 255.269 17.3833 256.017 17.0303C256.777 16.6665 257.455 16.2814 258.049 15.8749V12.9704Z" fill="#F1EFEC"/>
<path d="M271.182 23.0317V0.983511H277.311V23.0317H271.182Z" fill="#F1EFEC"/>
<path d="M177.402 7.62686C177.402 8.12971 177.304 8.57431 177.108 8.96067C176.912 9.3442 176.631 9.66522 176.266 9.92375C175.902 10.1823 175.458 10.3783 174.937 10.5118C174.418 10.6425 173.835 10.7078 173.186 10.7078C172.538 10.7078 171.952 10.6425 171.427 10.5118C170.905 10.3783 170.46 10.1823 170.093 9.92375C169.725 9.66522 169.441 9.3442 169.242 8.96067C169.043 8.57431 168.944 8.12971 168.944 7.62686C168.944 7.12402 169.043 6.68084 169.242 6.29731C169.441 5.91095 169.725 5.5885 170.093 5.32998C170.46 5.07146 170.905 4.87685 171.427 4.74617C171.952 4.61265 172.538 4.54589 173.186 4.54589C173.835 4.54589 174.418 4.61265 174.937 4.74617C175.458 4.87685 175.902 5.07146 176.266 5.32998C176.631 5.5885 176.912 5.91095 177.108 6.29731C177.304 6.68084 177.402 7.12402 177.402 7.62686ZM175.706 7.62686C175.706 7.40811 175.668 7.19078 175.592 6.97487C175.52 6.75612 175.389 6.5601 175.199 6.3868C175.012 6.21351 174.756 6.07288 174.43 5.96493C174.104 5.85697 173.69 5.80299 173.186 5.80299C172.849 5.80299 172.552 5.82856 172.295 5.8797C172.039 5.92799 171.817 5.99618 171.63 6.08424C171.443 6.17231 171.287 6.27601 171.16 6.39533C171.033 6.5118 170.932 6.63822 170.857 6.77459C170.782 6.90811 170.727 7.04874 170.694 7.19646C170.664 7.34135 170.649 7.48482 170.649 7.62686C170.649 7.77175 170.664 7.91806 170.694 8.06578C170.727 8.21351 170.782 8.35556 170.857 8.49192C170.932 8.62545 171.033 8.75045 171.16 8.86692C171.287 8.9834 171.443 9.08567 171.63 9.17374C171.817 9.25897 172.039 9.32715 172.295 9.37829C172.552 9.42658 172.849 9.45073 173.186 9.45073C173.69 9.45073 174.104 9.39676 174.43 9.2888C174.756 9.18085 175.012 9.04022 175.199 8.86692C175.389 8.69363 175.52 8.49902 175.592 8.28311C175.668 8.06436 175.706 7.84561 175.706 7.62686Z" fill="#F1EFEC"/>
<path d="M183.745 12.7618C183.745 13.4323 183.623 14.0251 183.378 14.5402C183.133 15.0516 182.782 15.4796 182.326 15.8243C181.87 16.169 181.316 16.4304 180.664 16.6084C180.016 16.7827 179.286 16.8698 178.476 16.8698C177.665 16.8698 176.932 16.7827 176.277 16.6084C175.625 16.4304 175.069 16.169 174.609 15.8243C174.149 15.4796 173.795 15.0516 173.546 14.5402C173.297 14.0251 173.173 13.4323 173.173 12.7618C173.173 12.0914 173.297 11.5005 173.546 10.9891C173.795 10.4739 174.149 10.044 174.609 9.69931C175.069 9.35461 175.625 9.09514 176.277 8.9209C176.932 8.74287 177.665 8.65385 178.476 8.65385C179.286 8.65385 180.016 8.74287 180.664 8.9209C181.316 9.09514 181.87 9.35461 182.326 9.69931C182.782 10.044 183.133 10.4739 183.378 10.9891C183.623 11.5005 183.745 12.0914 183.745 12.7618ZM181.625 12.7618C181.625 12.4702 181.578 12.1804 181.484 11.8925C181.393 11.6008 181.229 11.3395 180.992 11.1084C180.758 10.8773 180.438 10.6898 180.031 10.5459C179.624 10.402 179.105 10.33 178.476 10.33C178.054 10.33 177.682 10.3641 177.362 10.4323C177.042 10.4967 176.765 10.5876 176.531 10.705C176.297 10.8224 176.101 10.9607 175.943 11.1198C175.785 11.2751 175.658 11.4436 175.564 11.6255C175.47 11.8035 175.402 11.991 175.361 12.188C175.323 12.3811 175.304 12.5724 175.304 12.7618C175.304 12.955 175.323 13.1501 175.361 13.347C175.402 13.544 175.47 13.7334 175.564 13.9152C175.658 14.0933 175.785 14.2599 175.943 14.4152C176.101 14.5705 176.297 14.7069 176.531 14.8243C176.765 14.938 177.042 15.0289 177.362 15.0971C177.682 15.1614 178.054 15.1936 178.476 15.1936C179.105 15.1936 179.624 15.1217 180.031 14.9777C180.438 14.8338 180.758 14.6463 180.992 14.4152C181.229 14.1842 181.393 13.9247 181.484 13.6368C181.578 13.3452 181.625 13.0535 181.625 12.7618Z" fill="#F1EFEC"/>
<path d="M173.173 16.8698C173.173 17.205 173.099 17.5014 172.952 17.759C172.805 18.0147 172.595 18.2287 172.321 18.401C172.048 18.5734 171.715 18.7041 171.324 18.7931C170.935 18.8802 170.497 18.9238 170.011 18.9238C169.525 18.9238 169.085 18.8802 168.692 18.7931C168.3 18.7041 167.967 18.5734 167.691 18.401C167.415 18.2287 167.202 18.0147 167.053 17.759C166.904 17.5014 166.829 17.205 166.829 16.8698C166.829 16.5346 166.904 16.2391 167.053 15.9834C167.202 15.7258 167.415 15.5109 167.691 15.3385C167.967 15.1662 168.3 15.0364 168.692 14.9493C169.085 14.8603 169.525 14.8158 170.011 14.8158C170.497 14.8158 170.935 14.8603 171.324 14.9493C171.715 15.0364 172.048 15.1662 172.321 15.3385C172.595 15.5109 172.805 15.7258 172.952 15.9834C173.099 16.2391 173.173 16.5346 173.173 16.8698ZM171.901 16.8698C171.901 16.724 171.872 16.5791 171.816 16.4351C171.762 16.2893 171.663 16.1586 171.521 16.0431C171.38 15.9275 171.188 15.8338 170.944 15.7618C170.7 15.6899 170.389 15.6539 170.011 15.6539C169.758 15.6539 169.535 15.6709 169.343 15.705C169.151 15.7372 168.984 15.7827 168.844 15.8414C168.704 15.9001 168.586 15.9692 168.491 16.0488C168.396 16.1264 168.321 16.2107 168.264 16.3016C168.208 16.3906 168.167 16.4844 168.142 16.5829C168.119 16.6794 168.108 16.7751 168.108 16.8698C168.108 16.9664 168.119 17.0639 168.142 17.1624C168.167 17.2609 168.208 17.3556 168.264 17.4465C168.321 17.5355 168.396 17.6188 168.491 17.6965C168.586 17.7741 168.704 17.8423 168.844 17.901C168.984 17.9579 169.151 18.0033 169.343 18.0374C169.535 18.0696 169.758 18.0857 170.011 18.0857C170.389 18.0857 170.7 18.0497 170.944 17.9777C171.188 17.9058 171.38 17.812 171.521 17.6965C171.663 17.581 171.762 17.4512 171.816 17.3073C171.872 17.1615 171.901 17.0156 171.901 16.8698Z" fill="#F1EFEC"/>
</svg>
