<svg width="16" height="16" viewBox="0 0 16 16" fill="none" xmlns="http://www.w3.org/2000/svg">
<g clip-path="url(#clip0_913_1218)">
<path d="M4.11328 7.99783H11.8911M4.11328 4.88672H8.77995" stroke="#123459" stroke-linecap="round" stroke-linejoin="round"/>
<path d="M1 14.4478V2.55556C1 2.143 1.16389 1.74733 1.45561 1.45561C1.74733 1.16389 2.143 1 2.55556 1H13.4444C13.857 1 14.2527 1.16389 14.5444 1.45561C14.8361 1.74733 15 2.143 15 2.55556V10.3333C15 10.7459 14.8361 11.1416 14.5444 11.4333C14.2527 11.725 13.857 11.8889 13.4444 11.8889H4.85856C4.6254 11.8889 4.39524 11.9414 4.18509 12.0423C3.97493 12.1433 3.79016 12.2902 3.64444 12.4722L1.83144 14.7387C1.77111 14.8143 1.68877 14.8693 1.59581 14.8961C1.50285 14.9228 1.40387 14.92 1.31256 14.8881C1.22125 14.8561 1.14212 14.7966 1.08613 14.7177C1.03013 14.6388 1.00004 14.5445 1 14.4478Z" stroke="#123459"/>
</g>
<defs>
<clipPath id="clip0_913_1218">
<rect width="16" height="16" fill="white"/>
</clipPath>
</defs>
</svg>
