<svg width="28" height="28" viewBox="0 0 28 28" fill="none" xmlns="http://www.w3.org/2000/svg">
<rect width="28" height="28" rx="14" transform="matrix(-1 0 0 1 28 0)" fill="#123459"/>
<path fill-rule="evenodd" clip-rule="evenodd" d="M12.4148 6.68391L19.1749 13.4562C19.2358 13.5143 19.2841 13.5843 19.3168 13.6619C19.3496 13.7394 19.3661 13.8228 19.3653 13.907C19.3657 13.993 19.3491 14.0783 19.3164 14.1579C19.2837 14.2375 19.2357 14.3099 19.1749 14.3708C16.7296 16.7564 14.3729 19.059 12.1049 21.2784C11.9883 21.3876 11.5216 21.6592 11.1613 21.256C10.8011 20.8519 11.0195 20.5 11.1613 20.3544L17.7581 13.907L11.4609 7.59857C11.2313 7.28186 11.25 6.98973 11.5169 6.72217C11.7845 6.45462 12.0838 6.44124 12.4148 6.68391Z" fill="#F0EFEB"/>
</svg>
