<svg width="44" height="45" viewBox="0 0 44 45" fill="none" xmlns="http://www.w3.org/2000/svg">
<circle cx="22" cy="22.5" r="21" stroke="#F1EFEC" stroke-width="2"/>
<path d="M12 29.5C12 28.1739 12.5268 26.9021 13.4645 25.9645C14.4021 25.0268 15.6739 24.5 17 24.5H27C28.3261 24.5 29.5978 25.0268 30.5355 25.9645C31.4732 26.9021 32 28.1739 32 29.5C32 30.163 31.7366 30.7989 31.2678 31.2678C30.7989 31.7366 30.163 32 29.5 32H14.5C13.837 32 13.2011 31.7366 12.7322 31.2678C12.2634 30.7989 12 30.163 12 29.5Z" stroke="#F1EFEC" stroke-width="2.33333" stroke-linejoin="round"/>
<path d="M22 19.5C24.0711 19.5 25.75 17.8211 25.75 15.75C25.75 13.6789 24.0711 12 22 12C19.9289 12 18.25 13.6789 18.25 15.75C18.25 17.8211 19.9289 19.5 22 19.5Z" stroke="#F1EFEC" stroke-width="2.33333"/>
</svg>
