<svg width="16" height="16" viewBox="0 0 16 16" fill="none" xmlns="http://www.w3.org/2000/svg">
<g clip-path="url(#clip0_1672_2864)">
<path d="M7.31454 5.5087C7.17487 5.60471 7.06291 5.73576 6.98987 5.8887C6.92791 6.00246 6.82421 6.08773 6.70062 6.12655C6.57703 6.16537 6.44319 6.15471 6.32731 6.09681C6.21142 6.03891 6.12253 5.9383 6.07936 5.81616C6.03619 5.69402 6.04211 5.55989 6.09587 5.44203C6.2292 5.17403 6.43787 4.89136 6.76054 4.6767C7.08587 4.4587 7.4972 4.33203 8.0012 4.33203C8.43987 4.33203 8.91387 4.46203 9.29054 4.7447C9.50053 4.89821 9.67083 5.09965 9.78725 5.33226C9.90367 5.56487 9.96286 5.82193 9.95987 6.08203C9.95987 6.7707 9.61787 7.2287 9.2752 7.5587C9.14854 7.6807 9.0092 7.79736 8.8892 7.89736L8.7912 7.97936C8.68788 8.0629 8.59094 8.15404 8.5012 8.25203V9.16536C8.5012 9.29797 8.44853 9.42515 8.35476 9.51892C8.26099 9.61269 8.13381 9.66536 8.0012 9.66536C7.8686 9.66536 7.74142 9.61269 7.64765 9.51892C7.55388 9.42515 7.5012 9.29797 7.5012 9.16536V8.18336C7.5012 8.02536 7.54587 7.84736 7.66587 7.6927C7.81254 7.50603 7.98987 7.34803 8.14454 7.2167L8.26654 7.1147L8.2672 7.11403C8.38187 7.0187 8.4832 6.93403 8.58054 6.83936C8.82587 6.6027 8.95987 6.3887 8.95987 6.08203C8.96299 5.97717 8.94002 5.87317 8.89301 5.77938C8.846 5.68559 8.77642 5.60495 8.69054 5.5447C8.51187 5.4107 8.2572 5.33203 8.0012 5.33203C7.67187 5.33203 7.45854 5.4127 7.31454 5.5087ZM8.66787 11.332C8.66787 11.5088 8.59763 11.6784 8.47261 11.8034C8.34758 11.9285 8.17802 11.9987 8.0012 11.9987C7.82439 11.9987 7.65482 11.9285 7.5298 11.8034C7.40478 11.6784 7.33454 11.5088 7.33454 11.332C7.33454 11.1552 7.40478 10.9857 7.5298 10.8606C7.65482 10.7356 7.82439 10.6654 8.0012 10.6654C8.17802 10.6654 8.34758 10.7356 8.47261 10.8606C8.59763 10.9857 8.66787 11.1552 8.66787 11.332Z" fill="#123459"/>
<path d="M8.0013 0.667969C12.0513 0.667969 15.3346 3.9513 15.3346 8.0013C15.3346 12.0513 12.0513 15.3346 8.0013 15.3346C3.9513 15.3346 0.667969 12.0513 0.667969 8.0013C0.667969 3.9513 3.9513 0.667969 8.0013 0.667969ZM1.66797 8.0013C1.66797 9.68101 2.33523 11.2919 3.52296 12.4796C4.71069 13.6674 6.3216 14.3346 8.0013 14.3346C9.68101 14.3346 11.2919 13.6674 12.4796 12.4796C13.6674 11.2919 14.3346 9.68101 14.3346 8.0013C14.3346 6.3216 13.6674 4.71069 12.4796 3.52296C11.2919 2.33523 9.68101 1.66797 8.0013 1.66797C6.3216 1.66797 4.71069 2.33523 3.52296 3.52296C2.33523 4.71069 1.66797 6.3216 1.66797 8.0013Z" fill="#123459"/>
</g>
<defs>
<clipPath id="clip0_1672_2864">
<rect width="16" height="16" fill="white"/>
</clipPath>
</defs>
</svg>
