<svg width="44" height="45" viewBox="0 0 44 45" fill="none" xmlns="http://www.w3.org/2000/svg">
<circle cx="22" cy="22.5" r="21" stroke="#F0EFEB" stroke-width="2"/>
<mask id="path-2-inside-1_744_688" fill="white">
<path d="M20.6645 26.9507V21.7427H22.5965C23.9218 21.7427 24.9018 21.388 25.5365 20.6787C26.1898 19.9694 26.5165 19.1014 26.5165 18.0747C26.5165 17.3094 26.3578 16.656 26.0405 16.1147C25.7231 15.5547 25.2751 15.1347 24.6965 14.8547C24.1365 14.556 23.4925 14.4067 22.7645 14.4067C21.9245 14.4067 21.1965 14.584 20.5805 14.9387C19.9831 15.2747 19.5165 15.7414 19.1805 16.3387C18.8445 16.9174 18.6765 17.5894 18.6765 18.3547H16.1005C16.1005 17.2534 16.3431 16.2267 16.8285 15.2747C17.3325 14.3227 18.0791 13.548 19.0685 12.9507C20.0578 12.3534 21.2898 12.0547 22.7645 12.0547C24.0711 12.0547 25.1911 12.3254 26.1245 12.8667C27.0765 13.3894 27.8045 14.0987 28.3085 14.9947C28.8311 15.872 29.0925 16.8427 29.0925 17.9067V18.2427C29.0925 19.288 28.8405 20.2494 28.3365 21.1267C27.8325 22.004 27.0765 22.704 26.0685 23.2267C25.0791 23.7307 23.8565 23.9827 22.4005 23.9827L23.4085 22.6947L23.3525 26.9507H20.6645ZM20.3845 33.0547V29.6387H23.6325V33.0547H20.3845Z"/>
</mask>
<path d="M20.6645 26.9507V21.7427H22.5965C23.9218 21.7427 24.9018 21.388 25.5365 20.6787C26.1898 19.9694 26.5165 19.1014 26.5165 18.0747C26.5165 17.3094 26.3578 16.656 26.0405 16.1147C25.7231 15.5547 25.2751 15.1347 24.6965 14.8547C24.1365 14.556 23.4925 14.4067 22.7645 14.4067C21.9245 14.4067 21.1965 14.584 20.5805 14.9387C19.9831 15.2747 19.5165 15.7414 19.1805 16.3387C18.8445 16.9174 18.6765 17.5894 18.6765 18.3547H16.1005C16.1005 17.2534 16.3431 16.2267 16.8285 15.2747C17.3325 14.3227 18.0791 13.548 19.0685 12.9507C20.0578 12.3534 21.2898 12.0547 22.7645 12.0547C24.0711 12.0547 25.1911 12.3254 26.1245 12.8667C27.0765 13.3894 27.8045 14.0987 28.3085 14.9947C28.8311 15.872 29.0925 16.8427 29.0925 17.9067V18.2427C29.0925 19.288 28.8405 20.2494 28.3365 21.1267C27.8325 22.004 27.0765 22.704 26.0685 23.2267C25.0791 23.7307 23.8565 23.9827 22.4005 23.9827L23.4085 22.6947L23.3525 26.9507H20.6645ZM20.3845 33.0547V29.6387H23.6325V33.0547H20.3845Z" fill="#123459"/>
<path d="M20.6645 26.9507H19.6645V27.9507H20.6645V26.9507ZM20.6645 21.7427V20.7427H19.6645V21.7427H20.6645ZM25.5365 20.6787L24.8009 20.0012L24.796 20.0065L24.7912 20.0119L25.5365 20.6787ZM26.0405 16.1147L25.1704 16.6077L25.1741 16.6141L25.1778 16.6204L26.0405 16.1147ZM24.6965 14.8547L24.2259 15.737L24.2432 15.7463L24.2609 15.7548L24.6965 14.8547ZM20.5805 14.9387L21.0708 15.8103L21.0794 15.8053L20.5805 14.9387ZM19.1805 16.3387L20.0453 16.8409L20.052 16.8289L19.1805 16.3387ZM18.6765 18.3547V19.3547H19.6765V18.3547H18.6765ZM16.1005 18.3547H15.1005V19.3547H16.1005V18.3547ZM16.8285 15.2747L15.9447 14.8068L15.9411 14.8136L15.9376 14.8205L16.8285 15.2747ZM19.0685 12.9507L19.5853 13.8068L19.0685 12.9507ZM26.1245 12.8667L25.6228 13.7317L25.6329 13.7376L25.6432 13.7433L26.1245 12.8667ZM28.3085 14.9947L27.4369 15.4849L27.443 15.4958L27.4494 15.5065L28.3085 14.9947ZM28.3365 21.1267L29.2036 21.6248L28.3365 21.1267ZM26.0685 23.2267L26.5224 24.1178L26.5288 24.1144L26.0685 23.2267ZM22.4005 23.9827L21.613 23.3664L20.348 24.9827H22.4005V23.9827ZM23.4085 22.6947L24.4084 22.7078L24.4474 19.7446L22.621 22.0784L23.4085 22.6947ZM23.3525 26.9507V27.9507H24.3394L24.3524 26.9638L23.3525 26.9507ZM20.3845 33.0547H19.3845V34.0547H20.3845V33.0547ZM20.3845 29.6387V28.6387H19.3845V29.6387H20.3845ZM23.6325 29.6387H24.6325V28.6387H23.6325V29.6387ZM23.6325 33.0547V34.0547H24.6325V33.0547H23.6325ZM20.6645 26.9507H21.6645V21.7427H20.6645H19.6645V26.9507H20.6645ZM20.6645 21.7427V22.7427H22.5965V21.7427V20.7427H20.6645V21.7427ZM22.5965 21.7427V22.7427C24.0907 22.7427 25.3919 22.3399 26.2817 21.3455L25.5365 20.6787L24.7912 20.0119C24.4117 20.4361 23.7529 20.7427 22.5965 20.7427V21.7427ZM25.5365 20.6787L26.272 21.3562C27.1071 20.4495 27.5165 19.3346 27.5165 18.0747H26.5165H25.5165C25.5165 18.8681 25.2725 19.4892 24.8009 20.0012L25.5365 20.6787ZM26.5165 18.0747H27.5165C27.5165 17.1705 27.3282 16.3341 26.9032 15.609L26.0405 16.1147L25.1778 16.6204C25.3874 16.9779 25.5165 17.4482 25.5165 18.0747H26.5165ZM26.0405 16.1147L26.9105 15.6217C26.4932 14.8852 25.8937 14.3231 25.132 13.9545L24.6965 14.8547L24.2609 15.7548C24.6565 15.9463 24.9531 16.2241 25.1704 16.6077L26.0405 16.1147ZM24.6965 14.8547L25.1671 13.9723C24.4422 13.5857 23.6323 13.4067 22.7645 13.4067V14.4067V15.4067C23.3527 15.4067 23.8308 15.5263 24.2259 15.737L24.6965 14.8547ZM22.7645 14.4067V13.4067C21.7813 13.4067 20.8748 13.6153 20.0815 14.0721L20.5805 14.9387L21.0794 15.8053C21.5181 15.5527 22.0676 15.4067 22.7645 15.4067V14.4067ZM20.5805 14.9387L20.0902 14.0671C19.3332 14.4929 18.7347 15.0915 18.3089 15.8484L19.1805 16.3387L20.052 16.8289C20.2983 16.3912 20.633 16.0565 21.0707 15.8103L20.5805 14.9387ZM19.1805 16.3387L18.3157 15.8366C17.879 16.5886 17.6765 17.4387 17.6765 18.3547H18.6765H19.6765C19.6765 17.74 19.8099 17.2461 20.0453 16.8408L19.1805 16.3387ZM18.6765 18.3547V17.3547H16.1005V18.3547V19.3547H18.6765V18.3547ZM16.1005 18.3547H17.1005C17.1005 17.4062 17.308 16.5358 17.7194 15.7289L16.8285 15.2747L15.9376 14.8205C15.3783 15.9176 15.1005 17.1005 15.1005 18.3547H16.1005ZM16.8285 15.2747L17.7123 15.7426C18.1252 14.9625 18.7395 14.3174 19.5853 13.8068L19.0685 12.9507L18.5516 12.0946C17.4188 12.7786 16.5397 13.6828 15.9447 14.8068L16.8285 15.2747ZM19.0685 12.9507L19.5853 13.8068C20.3811 13.3263 21.4224 13.0547 22.7645 13.0547V12.0547V11.0547C21.1572 11.0547 19.7345 11.3804 18.5516 12.0946L19.0685 12.9507ZM22.7645 12.0547V13.0547C23.9321 13.0547 24.871 13.2957 25.6228 13.7317L26.1245 12.8667L26.6262 12.0017C25.5112 11.355 24.2102 11.0547 22.7645 11.0547V12.0547ZM26.1245 12.8667L25.6432 13.7433C26.4413 14.1814 27.0297 14.761 27.4369 15.4849L28.3085 14.9947L29.18 14.5044C28.5793 13.4364 27.7117 12.5973 26.6057 11.9901L26.1245 12.8667ZM28.3085 14.9947L27.4494 15.5065C27.8759 16.2224 28.0925 17.015 28.0925 17.9067H29.0925H30.0925C30.0925 16.6704 29.7864 15.5216 29.1676 14.4829L28.3085 14.9947ZM29.0925 17.9067H28.0925V18.2427H29.0925H30.0925V17.9067H29.0925ZM29.0925 18.2427H28.0925C28.0925 19.1193 27.8833 19.908 27.4694 20.6286L28.3365 21.1267L29.2036 21.6248C29.7976 20.5907 30.0925 19.4568 30.0925 18.2427H29.0925ZM28.3365 21.1267L27.4694 20.6286C27.0722 21.3199 26.4675 21.8934 25.6082 22.3389L26.0685 23.2267L26.5288 24.1144C27.6855 23.5147 28.5928 22.6881 29.2036 21.6248L28.3365 21.1267ZM26.0685 23.2267L25.6145 22.3356C24.8026 22.7493 23.746 22.9827 22.4005 22.9827V23.9827V24.9827C23.967 24.9827 25.3556 24.7121 26.5224 24.1177L26.0685 23.2267ZM22.4005 23.9827L23.188 24.599L24.196 23.311L23.4085 22.6947L22.621 22.0784L21.613 23.3664L22.4005 23.9827ZM23.4085 22.6947L22.4086 22.6815L22.3526 26.9375L23.3525 26.9507L24.3524 26.9638L24.4084 22.7078L23.4085 22.6947ZM23.3525 26.9507V25.9507H20.6645V26.9507V27.9507H23.3525V26.9507ZM20.3845 33.0547H21.3845V29.6387H20.3845H19.3845V33.0547H20.3845ZM20.3845 29.6387V30.6387H23.6325V29.6387V28.6387H20.3845V29.6387ZM23.6325 29.6387H22.6325V33.0547H23.6325H24.6325V29.6387H23.6325ZM23.6325 33.0547V32.0547H20.3845V33.0547V34.0547H23.6325V33.0547Z" fill="#F0EFEB" mask="url(#path-2-inside-1_744_688)"/>
</svg>
