<svg width="42" height="42" viewBox="0 0 42 42" fill="none" xmlns="http://www.w3.org/2000/svg">
<rect width="42" height="42" rx="6" fill="#123459"/>
<path d="M27.3639 27.364C26.3174 28.4105 25.0289 29.1828 23.6125 29.6125C22.1962 30.0421 20.6958 30.1158 19.2442 29.8271C17.7926 29.5383 16.4346 28.896 15.2905 27.9571C14.1464 27.0182 13.2515 25.8116 12.6851 24.4442C12.1187 23.0768 11.8983 21.5908 12.0433 20.1179C12.1884 18.6449 12.6945 17.2305 13.5168 15.9999C14.339 14.7693 15.4521 13.7604 16.7574 13.0627C18.0627 12.365 19.5199 12 20.9999 12C25.0579 12 27.5179 14.705 29.9999 17.5" stroke="#DCEDFF" stroke-width="1.5" stroke-linecap="round" stroke-linejoin="round"/>
<path d="M30 13.5V17.5H26" stroke="#DCEDFF" stroke-width="1.5" stroke-linecap="round" stroke-linejoin="round"/>
</svg>
