<svg width="40" height="40" viewBox="0 0 40 40" fill="none" xmlns="http://www.w3.org/2000/svg">
<rect y="40" width="40" height="40" rx="19.5751" transform="rotate(-90 0 40)" fill="#123459"/>
<path d="M26.3639 26.364C25.3174 27.4105 24.0289 28.1828 22.6125 28.6125C21.1962 29.0421 19.6958 29.1158 18.2442 28.8271C16.7926 28.5383 15.4346 27.896 14.2905 26.9571C13.1464 26.0182 12.2515 24.8116 11.6851 23.4442C11.1187 22.0768 10.8983 20.5908 11.0433 19.1179C11.1884 17.6449 11.6945 16.2305 12.5168 14.9999C13.339 13.7693 14.4521 12.7604 15.7574 12.0627C17.0627 11.365 18.5199 11 19.9999 11C24.0579 11 26.5179 13.705 28.9999 16.5" stroke="#DCEDFF" stroke-width="1.5" stroke-linecap="round" stroke-linejoin="round"/>
<path d="M29 12.5V16.5H25" stroke="#DCEDFF" stroke-width="1.5" stroke-linecap="round" stroke-linejoin="round"/>
</svg>
