<svg width="44" height="44" viewBox="0 0 44 44" fill="none" xmlns="http://www.w3.org/2000/svg">
<path d="M13.7351 23.8836C13.5357 25.1524 14.4272 26.033 15.5187 26.4718C19.7035 28.1545 25.527 28.1545 29.7116 26.4718C30.8032 26.033 31.6947 25.1524 31.4953 23.8836C31.3728 23.1039 30.7668 22.4546 30.3179 21.8207C29.7298 20.98 29.6714 20.0631 29.6713 19.0876C29.6713 15.3178 26.5122 12.2617 22.6152 12.2617C18.7182 12.2617 15.5591 15.3178 15.5591 19.0876C15.559 20.0631 15.5006 20.98 14.9126 21.8207C14.4636 22.4546 13.8576 23.1039 13.7351 23.8836Z" stroke="#F1EFEC" stroke-width="2" stroke-linecap="round" stroke-linejoin="round"/>
<path d="M19.8008 30.0781C20.5473 30.6613 21.5332 31.0158 22.6139 31.0158C23.6946 31.0158 24.6805 30.6613 25.427 30.0781" stroke="#F1EFEC" stroke-width="2" stroke-linecap="round" stroke-linejoin="round"/>
<circle cx="22" cy="22" r="21" stroke="#F1EFEC" stroke-width="2"/>
</svg>
