<svg width="16" height="16" viewBox="0 0 16 16" fill="none" xmlns="http://www.w3.org/2000/svg">
<g clip-path="url(#clip0_913_1239)">
<path d="M12.6156 11.9323C13.5817 11.9323 14.0648 11.9323 14.3647 11.6317C14.6654 11.3317 14.6654 10.8486 14.6654 9.88249C14.6654 8.91635 14.6654 8.43328 14.3647 8.13332C14.0655 7.83268 13.5824 7.83268 12.6156 7.83268M3.0498 11.9323C2.08366 11.9323 1.60059 11.9323 1.30064 11.6317C1 11.3324 1 10.8493 1 9.88249C1 8.91566 1 8.43328 1.30064 8.13332C1.59991 7.83268 2.08298 7.83268 3.0498 7.83268M7.83268 3.0498C8.1045 3.0498 8.36519 2.94182 8.5574 2.74962C8.7496 2.55741 8.85758 2.29672 8.85758 2.0249C8.85758 1.75308 8.7496 1.49239 8.5574 1.30019C8.36519 1.10798 8.1045 1 7.83268 1C7.56086 1 7.30017 1.10798 7.10797 1.30019C6.91576 1.49239 6.80778 1.75308 6.80778 2.0249C6.80778 2.29672 6.91576 2.55741 7.10797 2.74962C7.30017 2.94182 7.56086 3.0498 7.83268 3.0498ZM7.83268 3.0498V5.09961M5.78288 8.51595V9.19922M9.88249 8.51595V9.19922M12.6156 10.5658V9.19922C12.6156 7.26694 12.6156 6.30011 12.015 5.7002C11.4151 5.09961 10.4482 5.09961 8.51595 5.09961H7.14941C5.21713 5.09961 4.25031 5.09961 3.6504 5.7002C3.0498 6.30011 3.0498 7.26694 3.0498 9.19922V10.5658C3.0498 12.498 3.0498 13.4649 3.6504 14.0648C4.25031 14.6654 5.21713 14.6654 7.14941 14.6654H8.51595C10.4482 14.6654 11.4151 14.6654 12.015 14.0648C12.6156 13.4649 12.6156 12.498 12.6156 10.5658Z" stroke="#123459" stroke-linecap="round" stroke-linejoin="round"/>
<path d="M6.46484 11.5898C6.46484 11.5898 6.92058 11.9315 7.83138 11.9315C8.74218 11.9315 9.19792 11.5898 9.19792 11.5898" stroke="#123459" stroke-linecap="round" stroke-linejoin="round"/>
</g>
<defs>
<clipPath id="clip0_913_1239">
<rect width="16" height="16" fill="white"/>
</clipPath>
</defs>
</svg>
