<svg width="42" height="42" viewBox="0 0 42 42" fill="none" xmlns="http://www.w3.org/2000/svg">
<rect width="42" height="42" rx="6" fill="#123459"/>
<path d="M28 21H26V23.75H23V25.5833H28V21ZM16 18.25H19V16.4167H14V21H16V18.25ZM30 12.75H12C11.4696 12.75 10.9609 12.9432 10.5858 13.287C10.2107 13.6308 10 14.0971 10 14.5833V27.4167C10 27.9029 10.2107 28.3692 10.5858 28.713C10.9609 29.0568 11.4696 29.25 12 29.25H30C30.5304 29.25 31.0391 29.0568 31.4142 28.713C31.7893 28.3692 32 27.9029 32 27.4167V14.5833C32 14.0971 31.7893 13.6308 31.4142 13.287C31.0391 12.9432 30.5304 12.75 30 12.75ZM30 27.4167H12V14.5833H30V27.4167Z" fill="#DCEDFF"/>
</svg>
