<svg width="19" height="19" viewBox="0 0 19 19" fill="none" xmlns="http://www.w3.org/2000/svg">
<path d="M13.553 13.553C14.2086 12.8973 14.7287 12.119 15.0835 11.2624C15.4383 10.4058 15.6209 9.48765 15.6209 8.56046C15.6209 7.63327 15.4383 6.71515 15.0835 5.85854C14.7287 5.00192 14.2086 4.22359 13.553 3.56796C12.8973 2.91234 12.119 2.39227 11.2624 2.03745C10.4058 1.68262 9.48765 1.5 8.56046 1.5C7.63327 1.5 6.71515 1.68262 5.85854 2.03745C5.00192 2.39227 4.22359 2.91234 3.56796 3.56796C2.24387 4.89205 1.5 6.68791 1.5 8.56046C1.5 10.433 2.24387 12.2289 3.56796 13.553C4.89205 14.8771 6.68791 15.6209 8.56046 15.6209C10.433 15.6209 12.2289 14.8771 13.553 13.553ZM13.553 13.553L18 18" stroke="#123459" stroke-width="2" stroke-linecap="round" stroke-linejoin="round"/>
</svg>
