<svg width="16" height="16" viewBox="0 0 16 16" fill="none" xmlns="http://www.w3.org/2000/svg">
<path d="M2 0.998075C1.73478 0.998075 1.48043 1.10343 1.29289 1.29097C1.10536 1.4785 1 1.73286 1 1.99808C1 2.26329 1.10536 2.51765 1.29289 2.70518C1.48043 2.89272 1.73478 2.99808 2 2.99808C2.26522 2.99808 2.51957 2.89272 2.70711 2.70518C2.89464 2.51765 3 2.26329 3 1.99808C3 1.73286 2.89464 1.4785 2.70711 1.29097C2.51957 1.10343 2.26522 0.998075 2 0.998075ZM9.77839e-07 1.99808C-0.000480478 1.51094 0.176843 1.04038 0.498688 0.674712C0.820534 0.309043 1.26477 0.0734082 1.74802 0.0120352C2.23127 -0.0493378 2.72031 0.0677705 3.12335 0.34138C3.52638 0.614989 3.8157 1.02629 3.937 1.49808H12.063C12.1513 1.15674 12.3282 0.844805 12.5758 0.593875C12.8235 0.342944 13.1331 0.161937 13.4732 0.0691962C13.8134 -0.0235445 14.172 -0.0247232 14.5127 0.0657795C14.8535 0.156282 15.1642 0.33525 15.4135 0.584547C15.6628 0.833844 15.8418 1.14461 15.9323 1.48536C16.0228 1.8261 16.0216 2.18472 15.9289 2.52486C15.8361 2.865 15.6551 3.17459 15.4042 3.42224C15.1533 3.66989 14.8413 3.84681 14.5 3.93508V12.0611C14.8413 12.1493 15.1533 12.3263 15.4042 12.5739C15.6551 12.8216 15.8361 13.1311 15.9289 13.4713C16.0216 13.8114 16.0228 14.17 15.9323 14.5108C15.8418 14.8515 15.6628 15.1623 15.4135 15.4116C15.1642 15.6609 14.8535 15.8399 14.5127 15.9304C14.172 16.0209 13.8134 16.0197 13.4732 15.927C13.1331 15.8342 12.8235 15.6532 12.5758 15.4023C12.3282 15.1513 12.1513 14.8394 12.063 14.4981H3.937C3.84874 14.8394 3.67182 15.1513 3.42417 15.4023C3.17651 15.6532 2.86693 15.8342 2.52679 15.927C2.18664 16.0197 1.82803 16.0209 1.48728 15.9304C1.14654 15.8399 0.83577 15.6609 0.586473 15.4116C0.337176 15.1623 0.158208 14.8515 0.0677051 14.5108C-0.0227976 14.17 -0.0216188 13.8114 0.0711219 13.4713C0.163863 13.1311 0.344869 12.8216 0.5958 12.5739C0.846731 12.3263 1.15867 12.1493 1.5 12.0611V3.93508C1.0706 3.82421 0.690236 3.57376 0.418706 3.22313C0.147177 2.87249 -0.000111735 2.44155 9.77839e-07 1.99808ZM2.5 3.93508V12.0611C3.203 12.2411 3.756 12.7951 3.937 13.4981H12.063C12.1523 13.152 12.3327 12.8362 12.5854 12.5835C12.8381 12.3307 13.1539 12.1504 13.5 12.0611V3.93508C13.1539 3.8458 12.8381 3.66541 12.5854 3.41269C12.3327 3.15997 12.1523 2.84415 12.063 2.49808H3.937C3.84772 2.84415 3.66734 3.15997 3.41462 3.41269C3.1619 3.66541 2.84607 3.8458 2.5 3.93508ZM14 0.998075C13.7348 0.998075 13.4804 1.10343 13.2929 1.29097C13.1054 1.4785 13 1.73286 13 1.99808C13 2.26329 13.1054 2.51765 13.2929 2.70518C13.4804 2.89272 13.7348 2.99808 14 2.99808C14.2652 2.99808 14.5196 2.89272 14.7071 2.70518C14.8946 2.51765 15 2.26329 15 1.99808C15 1.73286 14.8946 1.4785 14.7071 1.29097C14.5196 1.10343 14.2652 0.998075 14 0.998075ZM2 12.9981C1.73478 12.9981 1.48043 13.1034 1.29289 13.291C1.10536 13.4785 1 13.7329 1 13.9981C1 14.2633 1.10536 14.5176 1.29289 14.7052C1.48043 14.8927 1.73478 14.9981 2 14.9981C2.26522 14.9981 2.51957 14.8927 2.70711 14.7052C2.89464 14.5176 3 14.2633 3 13.9981C3 13.7329 2.89464 13.4785 2.70711 13.291C2.51957 13.1034 2.26522 12.9981 2 12.9981ZM14 12.9981C13.7348 12.9981 13.4804 13.1034 13.2929 13.291C13.1054 13.4785 13 13.7329 13 13.9981C13 14.2633 13.1054 14.5176 13.2929 14.7052C13.4804 14.8927 13.7348 14.9981 14 14.9981C14.2652 14.9981 14.5196 14.8927 14.7071 14.7052C14.8946 14.5176 15 14.2633 15 13.9981C15 13.7329 14.8946 13.4785 14.7071 13.291C14.5196 13.1034 14.2652 12.9981 14 12.9981Z" fill="#123459"/>
</svg>
