<svg width="44" height="44" viewBox="0 0 44 44" fill="none" xmlns="http://www.w3.org/2000/svg">
<path d="M14.6495 29.6685C16.387 31.406 18.6733 32.4873 21.1186 32.728C23.564 32.9687 26.0172 32.354 28.0601 30.9887C30.1031 29.6233 31.6093 27.5918 32.3223 25.2403C33.0352 22.8888 32.9106 20.3628 31.9698 18.0929C31.029 15.8229 29.3301 13.9495 27.1628 12.7917C24.9954 11.634 22.4936 11.2637 20.0838 11.7438C17.674 12.224 15.5052 13.5249 13.9471 15.4249C12.389 17.325 11.538 19.7065 11.5391 22.1637V24.519" stroke="#F1EFEC" stroke-width="1.5" stroke-linecap="round" stroke-linejoin="round"/>
<path d="M9.17969 22.1575L11.5397 24.5175L13.8997 22.1575M20.9797 17.4375V23.3375H26.8797" stroke="#F1EFEC" stroke-width="1.5" stroke-linecap="round" stroke-linejoin="round"/>
<circle cx="22" cy="22" r="21" stroke="#F1EFEC" stroke-width="2"/>
</svg>
