<svg width="40" height="40" viewBox="0 0 40 40" fill="none" xmlns="http://www.w3.org/2000/svg">
<rect y="40" width="40" height="40" rx="19.5751" transform="rotate(-90 0 40)" fill="#123459"/>
<path d="M13.6361 26.364C14.6826 27.4105 15.9711 28.1828 17.3875 28.6125C18.8038 29.0421 20.3042 29.1158 21.7558 28.8271C23.2074 28.5383 24.5654 27.896 25.7095 26.9571C26.8536 26.0182 27.7485 24.8116 28.3149 23.4442C28.8813 22.0768 29.1017 20.5908 28.9567 19.1179C28.8116 17.6449 28.3055 16.2305 27.4832 14.9999C26.661 13.7693 25.5479 12.7604 24.2426 12.0627C22.9373 11.365 21.4801 11 20.0001 11C15.9421 11 13.4821 13.705 11.0001 16.5" stroke="#DCEDFF" stroke-width="1.5" stroke-linecap="round" stroke-linejoin="round"/>
<path d="M11 12.5V16.5H15" stroke="#DCEDFF" stroke-width="1.5" stroke-linecap="round" stroke-linejoin="round"/>
</svg>
