<svg width="42" height="42" viewBox="0 0 42 42" fill="none" xmlns="http://www.w3.org/2000/svg">
<rect width="42" height="42" rx="6" fill="#123459"/>
<path d="M14.6361 27.364C15.6826 28.4105 16.9711 29.1828 18.3875 29.6125C19.8038 30.0421 21.3042 30.1158 22.7558 29.8271C24.2074 29.5383 25.5654 28.896 26.7095 27.9571C27.8536 27.0182 28.7485 25.8116 29.3149 24.4442C29.8813 23.0768 30.1017 21.5908 29.9567 20.1179C29.8116 18.6449 29.3055 17.2305 28.4832 15.9999C27.661 14.7693 26.5479 13.7604 25.2426 13.0627C23.9373 12.365 22.4801 12 21.0001 12C16.9421 12 14.4821 14.705 12.0001 17.5" stroke="#DCEDFF" stroke-width="1.5" stroke-linecap="round" stroke-linejoin="round"/>
<path d="M12 13.5V17.5H16" stroke="#DCEDFF" stroke-width="1.5" stroke-linecap="round" stroke-linejoin="round"/>
</svg>
